<?xml version="1.0" standalone="no"?>
<!DOCTYPE svg PUBLIC "-//W3C//DTD SVG 20010904//EN"
 "http://www.w3.org/TR/2001/REC-SVG-20010904/DTD/svg10.dtd">
<svg version="1.0" xmlns="http://www.w3.org/2000/svg"
 width="600.000000pt" height="865.000000pt" viewBox="0 0 600.000000 865.000000"
 preserveAspectRatio="xMidYMid meet">

<g transform="translate(0.000000,865.000000) scale(0.100000,-0.100000)"
fill="#000000" stroke="none">
<path d="M4891 7933 c-1 -7 -7 -13 -15 -13 -8 0 -18 -9 -21 -21 -4 -12 -12
-18 -21 -15 -7 3 -24 -9 -38 -26 -26 -34 -25 -59 1 -32 13 13 18 13 25 2 5 -8
7 -3 4 15 -4 24 -2 27 13 22 14 -4 20 1 26 22 5 19 9 23 13 13 2 -8 11 -22 18
-31 7 -8 18 -33 23 -55 l9 -39 1 33 c1 18 -4 43 -11 55 -6 12 -15 36 -19 52
-4 17 -7 24 -8 18z"/>
<path d="M4881 7844 c0 -11 3 -14 6 -6 3 7 2 16 -1 19 -3 4 -6 -2 -5 -13z"/>
<path d="M4766 7791 c-3 -5 -2 -20 3 -33 6 -12 10 -17 10 -10 1 6 5 12 10 12
4 0 3 -16 -3 -36 -9 -30 -15 -35 -36 -31 -23 5 -24 4 -5 -9 18 -14 18 -14 -2
-14 -12 0 -24 4 -28 9 -3 6 -28 -13 -55 -40 -47 -50 -50 -56 -41 -111 0 -5 5
-8 11 -8 5 0 13 18 16 40 6 36 8 38 20 23 13 -17 13 -17 15 2 1 11 1 23 0 28
-2 16 29 6 43 -15 9 -12 16 -18 16 -13 0 19 40 37 55 25 9 -8 14 -7 18 4 4 9
-1 19 -10 24 -12 7 -13 13 -3 31 9 17 9 26 -1 37 -7 8 -7 14 -1 14 11 0 22 55
13 67 -9 12 -39 15 -45 4z"/>
<path d="M4905 7740 c-3 -5 -1 -10 4 -10 6 0 11 5 11 10 0 6 -2 10 -4 10 -3 0
-8 -4 -11 -10z"/>
<path d="M4742 7724 c-7 -8 -8 -14 -3 -14 10 0 25 19 20 25 -2 1 -10 -3 -17
-11z"/>
<path d="M4867 7630 c-8 -22 -13 -40 -11 -40 7 0 36 71 31 76 -2 2 -11 -14
-20 -36z"/>
<path d="M4395 7585 c-20 -21 -34 -43 -31 -51 3 -7 0 -11 -7 -8 -7 2 -17 -4
-23 -14 -10 -15 -8 -18 7 -19 13 -1 17 2 12 10 -4 7 -1 7 10 -1 9 -8 20 -11
26 -8 5 4 7 -3 3 -16 -3 -12 -7 -17 -10 -10 -2 6 -8 12 -14 12 -7 0 -7 -4 0
-13 9 -10 6 -17 -9 -30 -19 -17 -19 -16 -15 15 3 18 3 27 0 20 -3 -6 -9 -10
-14 -7 -4 3 -13 -9 -20 -25 -11 -27 -10 -33 6 -53 l19 -22 -22 18 c-21 18 -22
18 -32 -1 -6 -11 -9 -21 -7 -23 2 -2 -2 -10 -10 -17 -11 -10 -14 -10 -14 0 -1
7 -10 -4 -21 -25 -11 -22 -17 -46 -14 -58 4 -11 2 -19 -4 -19 -6 0 -10 -12
-10 -27 1 -23 3 -24 6 -6 2 12 11 24 19 27 16 6 19 -5 3 -21 -7 -7 -5 -12 8
-17 9 -4 14 -4 11 -1 -4 4 -3 18 2 30 5 14 5 25 0 27 -5 2 -2 14 6 28 9 14 13
17 10 8 -3 -10 -1 -20 4 -23 6 -4 10 -15 10 -25 0 -10 5 -22 12 -26 6 -4 8 -3
4 4 -7 11 11 28 20 19 3 -3 -5 -16 -18 -29 -12 -12 -23 -25 -23 -28 0 -3 -8
-16 -17 -30 -9 -14 -24 -42 -34 -62 -10 -21 -22 -38 -28 -38 -5 0 -7 3 -3 6 3
3 2 16 -3 29 -5 12 -5 39 0 60 6 26 5 34 -2 27 -6 -6 -11 -49 -12 -96 -1 -100
1 -100 64 20 14 26 42 66 63 90 29 33 36 48 32 67 -4 14 -2 28 4 31 6 4 11 13
11 19 0 7 -10 -3 -21 -20 -12 -18 -23 -33 -25 -33 -10 0 -2 20 19 51 23 35 90
188 106 247 6 21 6 34 -1 38 -6 4 -5 9 3 15 7 4 11 11 7 14 -3 4 -23 -10 -43
-30z m17 -13 c-10 -3 -10 -7 0 -20 12 -15 11 -15 -4 -4 -18 14 -13 47 5 35 8
-5 7 -8 -1 -11z m-8 -50 c3 -5 -1 -9 -9 -9 -8 0 -12 4 -9 9 3 4 7 8 9 8 2 0 6
-4 9 -8z m-93 -159 c13 -16 12 -17 -3 -4 -10 7 -18 15 -18 17 0 8 8 3 21 -13z"/>
<path d="M4815 7600 c-4 -6 -10 -8 -15 -5 -13 8 -32 -50 -24 -78 4 -18 2 -27
-6 -27 -6 0 -8 -5 -5 -10 4 -6 -12 -29 -34 -52 -23 -22 -39 -43 -37 -45 5 -5
46 39 87 91 20 26 25 56 9 56 -14 0 -13 27 2 36 6 4 14 2 16 -4 5 -15 32 -3
32 14 0 8 -6 14 -12 14 -9 0 -8 4 2 10 9 6 10 10 3 10 -6 0 -15 -5 -18 -10z"/>
<path d="M4595 7499 c-4 -19 -16 -60 -27 -92 -11 -33 -17 -61 -15 -64 3 -2 13
24 23 57 13 42 20 56 24 44 6 -16 7 -15 13 5 3 13 10 20 16 16 7 -4 7 3 -1 22
-19 45 -26 47 -33 12z"/>
<path d="M4750 7510 c0 -5 5 -10 10 -10 6 0 10 5 10 10 0 6 -4 10 -10 10 -5 0
-10 -4 -10 -10z"/>
<path d="M3023 7404 c31 -38 44 -104 42 -231 0 -68 3 -123 8 -123 4 0 5 -10 2
-22 -4 -15 -3 -18 2 -10 13 17 15 258 4 306 -6 23 -23 52 -42 70 -18 17 -26
22 -16 10z"/>
<path d="M2993 7385 c0 -8 4 -12 9 -9 5 3 6 10 3 15 -9 13 -12 11 -12 -6z"/>
<path d="M3860 7340 c-6 -11 -8 -20 -6 -20 3 0 10 9 16 20 6 11 8 20 6 20 -3
0 -10 -9 -16 -20z"/>
<path d="M4366 7344 c-3 -9 -2 -23 2 -31 8 -13 10 -13 15 1 4 11 3 15 -4 10
-8 -4 -9 1 -4 15 7 24 0 29 -9 5z"/>
<path d="M4590 7317 c-8 -7 -24 -24 -35 -37 -12 -15 -4 -11 18 9 33 31 42 42
35 41 -2 0 -10 -6 -18 -13z"/>
<path d="M3821 7258 c-16 -51 -40 -168 -46 -226 -7 -72 11 -190 46 -298 16
-50 29 -105 29 -121 0 -46 -32 -108 -105 -208 -37 -49 -74 -102 -83 -118 -9
-15 -24 -30 -34 -33 -16 -5 -19 -9 -18 -29 1 -11 -25 -33 -33 -28 -9 6 -67
-58 -67 -75 0 -7 -4 -11 -9 -8 -5 3 -14 0 -20 -8 -7 -8 -8 -16 -4 -18 4 -3 2
-3 -5 -1 -8 1 -42 -22 -77 -53 -54 -48 -63 -60 -54 -76 15 -28 -15 -56 -43
-39 -11 7 -17 8 -14 3 3 -6 3 -12 -1 -15 -5 -2 -2 -2 5 0 22 5 8 -21 -17 -33
-13 -7 -28 -21 -35 -32 -6 -11 -25 -39 -42 -63 -30 -42 -46 -71 -137 -239 -22
-41 -43 -77 -46 -80 -8 -7 -70 -132 -73 -149 -4 -18 -35 -51 -48 -51 -6 0 -15
11 -22 25 -6 13 -15 22 -20 19 -4 -3 -5 -10 -2 -16 4 -7 2 -8 -4 -4 -15 9 -16
33 -2 38 5 2 7 13 4 25 -4 13 -10 21 -14 18 -4 -2 -5 7 -2 22 3 18 1 24 -7 19
-6 -4 -11 -18 -11 -32 0 -14 -4 -23 -10 -19 -5 3 -7 13 -4 23 5 14 4 14 -4 3
-8 -11 -5 -22 8 -41 10 -14 22 -38 25 -53 4 -15 13 -27 20 -27 13 0 25 -21 25
-46 0 -9 -4 -12 -10 -9 -6 4 -10 -18 -10 -59 0 -46 -9 -92 -31 -158 -18 -51
-32 -102 -33 -113 -1 -15 -7 -19 -26 -17 -20 3 -22 2 -12 -11 9 -10 9 -17 3
-22 -6 -3 -13 6 -17 20 -3 14 -10 25 -14 25 -5 0 -11 13 -15 29 -3 16 -15 39
-26 52 -11 13 -17 30 -13 41 3 10 1 18 -5 18 -6 0 -11 5 -11 11 0 5 5 7 11 3
9 -5 10 1 5 20 -4 16 -2 26 5 26 18 0 1 85 -33 170 -24 58 -44 87 -86 127 -30
29 -59 50 -64 47 -4 -3 -8 -2 -7 3 4 21 -3 32 -21 38 -17 5 -19 12 -14 48 11
88 41 197 54 197 5 0 22 -21 38 -47 40 -66 122 -154 134 -146 6 3 17 -2 25
-13 13 -18 13 -18 11 1 -2 11 -7 26 -12 33 -5 9 -3 13 5 11 27 -3 39 1 39 15
0 8 7 22 16 31 30 29 8 25 -25 -5 -37 -35 -44 -36 -62 -14 -12 15 -11 16 9 10
28 -9 29 8 0 21 -19 8 -20 10 -4 16 10 4 15 3 11 -3 -3 -6 -2 -10 4 -10 5 0
13 5 16 10 3 6 13 10 21 10 9 0 12 -5 8 -12 -4 -7 -3 -8 5 -4 19 12 -8 38 -32
30 -16 -5 -19 -3 -14 11 4 9 7 20 7 23 0 4 5 0 11 -8 8 -11 9 -9 3 10 -4 14
-14 30 -23 37 -14 11 -14 12 5 13 11 0 26 -6 34 -12 12 -11 12 -10 1 4 -9 12
-10 22 -2 37 15 28 14 58 -3 64 -15 6 -16 12 -18 72 0 17 -3 24 -5 18 -6 -18
-23 -16 -23 2 0 8 9 15 20 15 11 0 20 4 20 10 0 5 -7 7 -15 4 -9 -4 -15 0 -15
7 0 11 -3 11 -10 -1 -8 -13 -10 -12 -10 3 0 10 7 20 15 23 8 4 15 10 15 16 0
5 -4 7 -9 3 -5 -3 -16 1 -24 9 -8 8 -19 12 -23 8 -5 -4 -3 0 4 8 14 16 16 34
3 26 -5 -4 -12 0 -14 6 -5 12 -11 -16 -8 -34 0 -5 -10 -8 -24 -8 -14 0 -25 5
-25 11 0 6 7 9 15 5 8 -3 15 -1 15 3 0 5 3 16 6 25 4 10 1 16 -10 16 -10 0
-13 -6 -10 -15 4 -9 0 -15 -10 -15 -11 0 -16 -9 -16 -31 0 -17 -4 -28 -10 -24
-5 3 -7 12 -3 20 3 9 0 22 -6 29 -10 12 -18 10 -51 -12 -22 -14 -40 -31 -40
-37 0 -6 -17 -30 -38 -53 -21 -22 -36 -45 -34 -51 2 -6 -1 -11 -8 -11 -6 0 -8
-4 -5 -10 9 -14 25 -12 25 3 1 13 34 57 44 57 9 0 -41 -69 -66 -90 -13 -11
-18 -19 -13 -18 6 2 11 1 13 -2 6 -9 -10 -60 -19 -60 -5 0 -9 -8 -9 -18 0 -18
-33 -52 -51 -52 -5 0 -7 -5 -4 -11 4 -5 -1 -19 -10 -29 -10 -11 -14 -24 -9
-31 5 -9 2 -10 -9 -6 -12 5 -17 1 -17 -13 0 -11 -4 -20 -10 -20 -5 0 -10 -7
-10 -15 0 -7 -7 -18 -16 -23 -11 -6 -13 -11 -5 -16 16 -11 13 -26 -4 -20 -18
7 -20 -17 -3 -34 9 -9 9 -12 0 -12 -7 0 -12 5 -12 10 0 6 -5 10 -11 10 -5 0
-7 -4 -4 -10 3 -5 -1 -10 -9 -10 -10 0 -13 -6 -9 -16 3 -8 -5 -36 -18 -61 -20
-40 -24 -43 -29 -24 -5 22 -5 22 -22 2 -10 -12 -13 -23 -8 -26 6 -4 10 -12 10
-18 -1 -13 -30 22 -30 35 0 14 40 49 50 43 6 -3 7 1 4 9 -3 9 -10 16 -14 16
-4 0 -7 13 -6 29 1 16 4 27 7 25 12 -7 36 72 28 91 -5 14 -8 15 -9 5 0 -11 -3
-11 -11 4 -9 14 -8 20 2 27 7 4 10 11 7 14 -10 11 -28 -4 -28 -23 0 -14 -2
-15 -10 -2 -5 9 -5 19 2 27 7 9 7 13 -1 13 -6 0 -11 15 -12 33 -1 30 -1 30 -9
7 l-7 -25 -7 27 c-4 14 -16 28 -27 31 -27 7 -24 26 4 21 20 -4 21 -4 2 5 -30
15 -39 13 -79 -14 -20 -13 -36 -20 -36 -15 0 5 -7 7 -15 4 -8 -4 -15 -2 -15 3
0 5 12 10 26 11 14 1 31 8 39 15 11 12 8 16 -22 25 -45 14 -66 6 -60 -24 3
-15 0 -21 -10 -17 -7 3 -11 9 -8 13 6 9 -44 20 -62 13 -7 -3 -13 -12 -13 -21
0 -12 3 -13 12 -4 16 16 29 15 26 0 -2 -7 7 -14 20 -16 15 -2 22 -10 21 -25 0
-12 -3 -16 -6 -9 -2 6 -11 12 -19 12 -10 0 -11 -6 -4 -24 6 -17 5 -26 -2 -28
-23 -8 2 -36 74 -83 40 -26 95 -67 122 -89 28 -23 52 -40 55 -39 10 3 0 -29
-16 -53 -8 -13 -11 -29 -7 -35 4 -8 3 -9 -4 -5 -8 4 -12 0 -12 -11 0 -10 -7
-29 -16 -41 -19 -28 -56 -133 -48 -141 8 -9 22 20 29 61 4 21 11 38 16 38 6 0
7 5 4 10 -3 6 -2 10 4 10 5 0 11 6 14 13 2 6 3 4 2 -5 -2 -11 3 -18 13 -18 12
0 13 -3 4 -12 -19 -19 -14 -55 10 -72 29 -20 37 -96 10 -96 -14 0 -15 -2 -2
-10 9 -5 19 -5 27 2 9 7 13 7 13 0 0 -6 -4 -13 -9 -16 -5 -3 -7 -15 -4 -26 4
-17 2 -19 -13 -13 -18 6 -18 6 -2 -10 9 -9 22 -17 30 -17 7 0 2 -7 -10 -16
-13 -9 -21 -22 -19 -28 8 -19 -30 -37 -61 -30 -24 6 -25 5 -14 -8 13 -17 28
-18 50 -5 7 5 12 3 12 -6 0 -21 -33 -27 -55 -11 -11 8 -27 12 -37 8 -20 -6
-24 6 -7 23 17 17 3 44 -18 36 -17 -7 -17 -6 0 11 15 16 18 16 33 2 8 -9 12
-20 9 -26 -3 -5 -1 -10 4 -10 18 0 12 26 -9 45 -11 10 -20 24 -20 32 0 8 -5
11 -11 8 -6 -4 -8 -14 -5 -22 4 -9 1 -13 -6 -11 -15 5 -20 38 -5 38 5 0 7 3 4
6 -10 10 -37 -16 -37 -36 0 -9 11 -29 25 -44 13 -14 20 -26 16 -26 -5 0 -14 7
-21 15 -20 25 -27 18 -33 -35 -6 -53 10 -163 23 -155 4 2 5 -6 3 -19 -3 -12 1
-29 9 -37 8 -8 20 -30 28 -49 17 -44 40 -71 53 -63 5 3 3 10 -7 15 -9 5 -14
13 -11 19 4 5 1 9 -5 9 -6 0 -9 4 -6 9 4 5 0 12 -6 14 -10 4 -9 8 2 16 13 9
13 11 -2 11 -22 0 -23 16 -2 24 22 8 26 8 19 -4 -3 -5 -2 -10 4 -10 5 0 11 5
13 12 2 6 10 8 17 4 9 -6 9 -11 0 -22 -9 -11 -8 -14 5 -14 19 0 21 -16 4 -23
-7 -3 -4 -6 7 -6 16 -1 17 -3 6 -10 -8 -5 -20 -7 -28 -4 -7 3 -13 0 -13 -5 0
-19 20 -24 38 -10 16 12 16 11 2 -6 -14 -18 -13 -19 3 -13 9 3 17 2 17 -4 0
-5 -7 -12 -15 -15 -8 -4 -12 -10 -9 -15 3 -5 9 -7 14 -4 5 3 11 1 15 -5 4 -6
12 -7 18 -4 8 4 7 2 -1 -7 -11 -12 -14 -12 -21 0 -7 10 -10 11 -16 0 -8 -12 7
-27 91 -99 48 -41 128 -89 138 -83 5 3 6 2 3 -3 -3 -6 26 -40 64 -78 38 -37
78 -85 89 -107 28 -53 50 -144 50 -202 0 -40 -3 -47 -17 -45 -10 2 -26 13 -36
26 -10 12 -23 20 -28 17 -5 -4 16 -41 46 -83 31 -42 60 -86 64 -97 22 -49 76
-108 134 -145 99 -62 208 -192 317 -377 119 -202 219 -356 302 -465 76 -99
135 -163 125 -134 -6 14 -3 17 8 12 11 -4 8 8 -11 44 -35 67 -42 146 -18 198
20 43 68 82 100 82 19 0 125 42 173 69 33 19 111 91 111 104 0 6 9 20 19 31
42 46 180 257 186 286 4 16 10 30 15 30 4 0 10 9 13 21 3 12 10 19 14 16 15
-9 38 41 83 178 47 144 58 241 30 270 -14 13 -19 13 -48 -8 -17 -12 -32 -28
-32 -34 0 -7 -4 -13 -10 -13 -5 0 -10 -7 -10 -15 0 -8 -6 -14 -12 -12 -7 1
-12 -4 -10 -11 1 -8 -2 -11 -8 -7 -12 8 -33 -43 -26 -62 4 -8 1 -11 -5 -8 -14
9 -79 -62 -79 -88 0 -16 -3 -18 -12 -9 -17 17 -31 15 -24 -3 3 -8 0 -15 -7
-15 -7 0 1 -10 16 -21 22 -17 25 -24 16 -35 -6 -8 -16 -11 -22 -7 -7 4 -8 0
-3 -13 6 -15 5 -16 -5 -7 -9 9 -9 16 -1 26 7 8 9 17 5 20 -9 9 -23 9 -22 0 3
-20 -2 -23 -17 -9 -8 9 -20 16 -27 16 -6 0 -2 -7 9 -16 17 -14 17 -15 1 -10
-11 3 -16 2 -12 -4 3 -6 13 -10 21 -10 8 0 12 -5 9 -10 -3 -6 -16 -8 -29 -4
-14 3 -27 -1 -35 -10 -16 -19 -1 -22 17 -4 9 9 12 9 12 0 0 -7 -7 -15 -15 -18
-8 -4 -15 -13 -15 -21 0 -8 -4 -11 -10 -8 -5 3 -10 1 -10 -6 0 -7 -8 -21 -17
-31 -13 -15 -14 -21 -4 -31 10 -9 11 -8 6 6 -4 9 -3 17 3 17 6 0 12 -6 14 -12
3 -8 10 -3 18 12 12 23 12 24 -3 11 -10 -7 -17 -9 -17 -3 0 16 28 34 42 26 10
-6 9 -3 -1 9 -9 11 -10 17 -2 17 6 0 11 -4 11 -10 0 -5 7 -10 15 -10 8 0 15 5
15 10 0 6 -4 10 -10 10 -5 0 -10 7 -10 15 0 12 3 13 19 3 11 -7 17 -16 15 -20
-3 -4 0 -8 5 -8 14 0 14 13 -1 28 -9 9 -7 12 10 12 24 0 27 -7 12 -30 -6 -9
-5 -17 3 -22 9 -6 8 -8 -2 -8 -9 0 -10 -4 -4 -12 6 -7 13 -21 17 -32 5 -14 2
-17 -9 -12 -8 3 -22 9 -30 12 -8 3 -15 1 -15 -6 0 -6 5 -8 10 -5 6 3 10 2 10
-3 0 -15 -61 -7 -71 9 -7 11 -9 10 -9 -3 0 -16 -11 -23 -32 -19 -5 0 -8 -4 -8
-10 0 -6 9 -9 20 -6 25 6 26 -6 3 -29 -17 -17 -17 -18 0 -11 13 5 17 3 14 -5
-2 -7 1 -20 9 -28 11 -13 7 -15 -24 -16 -20 -1 -41 4 -45 10 -6 7 -7 4 -3 -7
3 -10 -2 -22 -13 -29 -11 -6 -17 -19 -14 -27 4 -13 3 -13 -5 -2 -5 7 -7 23 -4
35 4 16 -2 13 -29 -15 -19 -21 -49 -44 -66 -53 -18 -9 -33 -22 -33 -28 0 -9
-3 -9 -12 0 -15 15 -52 16 -43 2 4 -6 11 -8 16 -5 5 4 12 -1 15 -10 4 -10 -5
-26 -25 -45 -17 -17 -31 -35 -31 -40 0 -6 18 8 40 30 34 34 60 45 60 24 0 -3
-4 -2 -10 1 -5 3 -10 1 -10 -4 0 -6 -9 -20 -20 -31 -11 -11 -15 -20 -10 -20 6
0 10 -9 10 -20 0 -11 -7 -20 -15 -20 -8 0 -15 -4 -15 -10 0 -5 7 -10 15 -10
12 0 14 -7 9 -27 -4 -16 -10 -32 -14 -36 -10 -11 -40 3 -40 18 0 8 -5 17 -11
21 -8 5 -10 -1 -6 -18 5 -18 3 -25 -8 -25 -8 0 -15 5 -16 11 -1 6 -5 0 -9 -14
-8 -24 -8 -24 -9 -2 -1 12 -5 22 -10 22 -4 0 -11 -37 -15 -82 -8 -98 -9 -109
-19 -125 -4 -6 -4 -18 -1 -26 4 -12 0 -14 -14 -11 -10 3 -37 36 -59 72 -22 37
-59 97 -82 134 -22 37 -41 72 -41 78 0 5 -17 36 -37 67 -33 52 -38 69 -49 168
-20 173 -18 218 18 340 17 60 35 115 40 121 4 6 36 19 70 30 35 10 74 24 88
31 14 7 33 13 43 13 10 0 16 4 13 9 -4 5 2 7 13 4 52 -13 261 136 261 186 0
12 4 19 10 16 6 -3 10 -2 10 4 0 5 9 12 19 16 11 3 27 22 36 43 10 20 27 51
39 67 26 37 87 137 111 185 10 19 27 53 38 75 50 99 79 295 58 395 -10 47 -9
63 4 100 14 40 14 46 0 56 -9 7 -13 18 -9 28 4 9 1 16 -6 16 -7 0 -10 11 -7
28 2 15 2 22 0 17 -2 -6 -17 -16 -33 -22 -28 -11 -42 -33 -20 -33 5 0 7 -7 4
-15 -4 -8 -17 -15 -30 -15 -15 0 -24 -6 -24 -15 0 -8 -6 -15 -14 -15 -16 0
-26 -21 -26 -59 0 -18 -12 -38 -33 -59 -18 -18 -35 -31 -38 -30 -2 2 -3 1 -2
0 1 -2 -14 -20 -32 -39 -25 -27 -38 -33 -54 -28 -25 8 -27 18 -6 35 8 7 12 17
9 22 -4 6 -10 5 -15 -3 -6 -10 -12 -5 -21 19 -8 19 -19 32 -30 32 -10 0 -18
-2 -18 -5 0 -11 26 -50 38 -58 8 -5 10 -17 6 -29 -4 -15 -3 -18 6 -13 9 6 11
4 6 -4 -6 -9 -13 -8 -27 5 -10 9 -19 12 -19 6 0 -6 5 -14 10 -17 6 -4 8 -11 5
-16 -4 -5 -16 -2 -29 6 -12 8 -25 13 -28 10 -3 -4 -5 8 -4 24 1 29 16 46 16
19 0 -9 3 -8 10 2 5 9 5 19 -2 27 -7 9 -7 13 1 13 7 0 9 4 6 10 -7 11 -16 47
-17 68 -1 6 -5 12 -10 12 -5 0 -6 5 -3 10 3 6 -1 10 -9 10 -8 0 -16 -7 -18
-15 -3 -14 -6 -13 -27 2 -28 19 -71 27 -71 12 0 -5 5 -9 11 -9 5 0 7 -5 3 -11
-4 -7 1 -7 16 1 20 11 22 10 17 -5 -4 -9 -7 -18 -7 -21 0 -2 -8 0 -17 3 -13 5
-15 2 -10 -11 4 -9 3 -15 -2 -12 -5 3 -12 23 -16 43 l-7 38 -21 -47 c-13 -30
-31 -52 -49 -61 -16 -8 -29 -17 -29 -21 2 -18 -2 -25 -30 -57 -20 -21 -33 -29
-36 -22 -4 10 -8 9 -19 -2 -8 -8 -22 -12 -32 -9 -14 5 -14 4 -3 -4 10 -7 22
-7 35 -1 12 6 5 -4 -14 -21 -19 -16 -40 -30 -47 -30 -7 0 -28 -14 -47 -30 -40
-36 -50 -28 -37 29 5 23 6 41 2 41 -3 0 -14 -32 -23 -72 -10 -40 -27 -82 -40
-96 l-23 -25 49 26 c27 15 56 27 66 27 9 0 33 10 52 23 54 38 85 43 221 41
130 -2 167 2 167 17 0 5 -8 5 -17 2 -15 -6 -16 -5 -3 9 8 9 17 12 18 7 2 -5 9
-6 14 -3 7 4 8 2 4 -4 -4 -7 -5 -12 -2 -12 12 0 106 62 106 70 0 4 11 10 24
12 19 4 22 1 18 -14 -5 -22 -22 -35 -22 -17 0 7 -8 5 -20 -6 -11 -10 -20 -24
-20 -31 0 -7 -3 -14 -7 -16 -9 -4 -53 -65 -53 -73 0 -3 -9 -15 -20 -27 -11
-12 -20 -27 -20 -34 0 -6 -7 -15 -16 -18 -9 -3 -14 -13 -11 -20 3 -8 0 -20 -8
-26 -8 -6 -12 -17 -9 -24 3 -9 -3 -13 -17 -12 -17 1 -31 -11 -51 -40 -15 -23
-58 -75 -95 -116 -61 -67 -131 -173 -121 -183 2 -2 13 12 23 33 28 55 76 124
82 119 2 -3 -1 -16 -8 -29 -19 -37 -5 -19 52 66 45 68 54 76 60 59 4 -12 6
-29 4 -39 -2 -11 -4 -22 -4 -26 -1 -4 -7 -5 -15 -2 -15 6 -56 -60 -56 -90 0
-8 -29 -50 -65 -93 -39 -47 -60 -80 -54 -84 8 -4 7 -9 -1 -14 -7 -4 -16 -2
-20 5 -4 7 -12 10 -18 6 -5 -3 -12 3 -15 14 -3 11 -10 20 -15 20 -15 0 -44
-144 -48 -240 -2 -47 -13 -132 -25 -190 -17 -84 -20 -127 -16 -220 2 -63 8
-123 12 -132 4 -10 3 -18 -2 -18 -5 0 -26 30 -47 67 -21 37 -47 76 -57 87 -11
11 -18 25 -16 31 2 5 -12 53 -31 105 -19 52 -54 171 -78 264 -43 163 -44 173
-45 330 -2 153 8 233 33 260 4 6 8 14 8 19 0 4 -11 -5 -25 -20 l-24 -28 8 32
c5 18 7 40 5 50 -5 18 31 246 40 262 3 4 12 63 20 132 9 68 27 160 41 204 13
44 25 86 25 94 0 7 11 34 23 60 13 25 32 71 42 101 10 30 26 72 37 93 10 21
16 42 13 47 -3 6 -1 10 5 10 6 0 9 4 6 9 -3 5 1 12 10 15 8 3 12 10 9 16 -3 5
-2 10 4 10 6 0 29 39 52 87 22 49 44 90 48 93 12 8 91 128 91 137 0 5 39 50
86 101 47 51 81 92 76 92 -6 0 -13 -6 -15 -12 -4 -10 -8 -9 -16 2 -13 19 5 31
33 21 26 -9 58 -3 51 10 -3 5 1 6 9 3 8 -3 25 1 38 10 12 9 17 16 11 16 -6 0
-13 9 -16 20 -3 10 0 18 5 17 6 -1 18 10 27 24 9 15 48 62 86 106 39 43 91
108 118 144 26 35 81 107 122 159 72 91 129 179 122 187 -2 1 -9 -7 -16 -20
-14 -25 -60 -62 -68 -54 -4 5 4 72 23 177 4 28 3 32 -6 20 -9 -12 -10 -9 -5
14 5 26 4 28 -9 17 -9 -8 -16 -23 -16 -34 0 -29 -10 -15 -15 19 -2 16 -4 31
-4 33 -1 2 -8 -2 -16 -9 -22 -18 -33 21 -28 99 4 50 2 62 -9 56 -7 -3 -2 4 12
16 17 15 19 20 8 16 -22 -8 -25 22 -5 42 10 11 9 12 -2 6 -11 -6 -12 -2 -7 21
4 16 11 31 14 34 4 3 8 16 8 30 2 30 10 77 19 108 4 12 5 22 2 22 -3 0 -10
-15 -16 -32z m42 -520 c9 -31 2 -33 -11 -3 -6 14 -8 25 -3 25 5 0 11 -10 14
-22z m-293 -571 c0 -2 -10 -12 -21 -23 -22 -19 -22 -19 -10 4 10 18 31 31 31
19z m-150 -169 c0 -5 -12 -8 -27 -8 -26 0 -26 0 -8 20 14 16 20 17 27 8 4 -7
8 -16 8 -20z m-791 -65 c1 11 31 -19 31 -31 0 -5 -6 -15 -14 -21 -11 -9 -18
-8 -30 4 -17 18 -20 34 -9 61 6 16 7 16 14 -2 4 -10 8 -15 8 -11z m-55 -33 l7
-25 -15 25 c-9 14 -15 32 -15 40 0 13 1 13 8 0 5 -8 12 -26 15 -40z m33 -36
c-3 -3 -12 -4 -19 -1 -8 3 -5 6 6 6 11 1 17 -2 13 -5z m63 -25 c0 -6 -4 -7
-10 -4 -5 3 -10 11 -10 16 0 6 5 7 10 4 6 -3 10 -11 10 -16z m600 17 c0 -3 -4
-8 -10 -11 -5 -3 -10 -1 -10 4 0 6 5 11 10 11 6 0 10 -2 10 -4z m-687 -21 c-3
-9 -8 -14 -10 -11 -3 3 -2 9 2 15 9 16 15 13 8 -4z m104 -7 c-3 -8 -6 -5 -6 6
-1 11 2 17 5 13 3 -3 4 -12 1 -19z m-44 -7 c4 -1 7 -8 7 -16 0 -18 -20 -20
-21 -2 0 9 -2 9 -6 0 -3 -10 -8 -10 -19 1 -20 20 -17 27 9 22 12 -3 25 -5 30
-5z m77 -33 c0 -6 -6 -5 -15 2 -8 7 -15 14 -15 16 0 2 7 1 15 -2 8 -4 15 -11
15 -16z m-262 -46 c-12 -29 -26 -52 -31 -52 -6 0 -5 5 0 13 6 6 13 25 17 42 7
29 26 59 32 52 2 -2 -6 -27 -18 -55z m130 29 c1 -34 -32 -72 -41 -48 -3 8 -4
21 -3 28 11 53 42 67 44 20z m116 -23 c13 -9 8 -14 -26 -22 -21 -5 -30 -2 -38
14 -6 11 -7 20 -3 20 4 0 1 5 -7 11 -12 8 -9 10 13 6 16 -2 27 0 27 7 0 6 6 2
12 -9 6 -11 16 -23 22 -27z m-184 -34 c-1 -4 4 -11 12 -16 10 -8 10 -9 -2 -5
-8 2 -16 14 -17 28 -1 13 0 18 3 12 3 -7 5 -15 4 -19z m-115 -67 c-5 -17 -12
-24 -21 -20 -13 5 -12 8 2 24 9 10 13 23 9 31 -6 10 -5 10 4 2 7 -7 9 -22 6
-37z m155 33 c0 -5 -8 -10 -17 -10 -15 0 -16 2 -3 10 19 12 20 12 20 0z m120
-15 c-7 -9 -15 -13 -19 -10 -3 3 1 10 9 15 21 14 24 12 10 -5z m-678 -17 c-9
-9 -15 -9 -24 1 -11 11 -10 13 5 8 10 -4 17 -2 17 5 0 6 3 8 7 5 4 -4 1 -13
-5 -19z m648 2 c0 -5 -7 -10 -15 -10 -8 0 -15 5 -15 10 0 6 7 10 15 10 8 0 15
-4 15 -10z m-40 -10 c0 -5 -4 -10 -10 -10 -5 0 -10 5 -10 10 0 6 5 10 10 10 6
0 10 -4 10 -10z m-580 -10 c0 -5 -4 -10 -10 -10 -5 0 -10 5 -10 10 0 6 5 10
10 10 6 0 10 -4 10 -10z m-46 -25 c-4 -8 -11 -15 -16 -15 -6 0 -5 6 2 15 7 8
14 15 16 15 2 0 1 -7 -2 -15z m-68 -14 c0 -11 -5 -17 -13 -14 -10 4 -11 9 -2
19 15 18 15 18 15 -5z m-36 -11 c0 -5 -2 -10 -4 -10 -3 0 -8 5 -11 10 -3 6 -1
10 4 10 6 0 11 -4 11 -10z m490 6 c0 -2 -7 -9 -15 -16 -12 -10 -15 -10 -15 4
0 9 7 16 15 16 8 0 15 -2 15 -4z m-280 -50 c0 -2 -9 -2 -20 1 -11 3 -20 9 -20
15 0 5 9 4 20 -2 11 -6 20 -12 20 -14z m264 3 c-6 -11 -44 -12 -44 -1 0 4 11
8 25 8 14 1 22 -2 19 -7z m-379 -19 c-3 -5 -12 -10 -18 -10 -7 0 -6 4 3 10 19
12 23 12 15 0z m379 -15 c-7 -17 -20 -20 -28 -6 -7 10 3 21 20 21 8 0 11 -6 8
-15z m-319 -15 c3 -5 1 -10 -4 -10 -6 0 -11 5 -11 10 0 6 2 10 4 10 3 0 8 -4
11 -10z m299 -36 c3 -8 2 -12 -4 -9 -6 3 -10 10 -10 16 0 14 7 11 14 -7z m136
-18 c0 -3 -4 -8 -10 -11 -5 -3 -10 -1 -10 4 0 6 5 11 10 11 6 0 10 -2 10 -4z
m-130 -16 c0 -5 -4 -10 -10 -10 -5 0 -10 5 -10 10 0 6 5 10 10 10 6 0 10 -4
10 -10z m-120 -10 c0 -5 -5 -10 -11 -10 -5 0 -7 5 -4 10 3 6 8 10 11 10 2 0 4
-4 4 -10z m27 -12 c-3 -8 -6 -5 -6 6 -1 11 2 17 5 13 3 -3 4 -12 1 -19z m40 0
c-3 -8 -6 -5 -6 6 -1 11 2 17 5 13 3 -3 4 -12 1 -19z m-81 -30 c4 -6 3 -8 -4
-4 -6 3 -16 -2 -22 -11 -10 -16 -11 -16 -6 -1 3 10 -2 18 -12 21 -10 3 -6 5
10 6 15 0 30 -4 34 -11z m104 2 c0 -5 -5 -10 -11 -10 -5 0 -7 5 -4 10 3 6 8
10 11 10 2 0 4 -4 4 -10z m-45 -10 c3 -5 1 -10 -4 -10 -6 0 -11 5 -11 10 0 6
2 10 4 10 3 0 8 -4 11 -10z m-18 -19 c12 -19 8 -31 -10 -31 -5 0 -7 6 -4 14 3
7 0 19 -6 25 -6 6 -7 11 -1 11 5 0 15 -9 21 -19z m303 9 c0 -5 -2 -10 -4 -10
-3 0 -8 5 -11 10 -3 6 -1 10 4 10 6 0 11 -4 11 -10z m-360 -50 c0 -5 -5 -10
-11 -10 -5 0 -7 5 -4 10 3 6 8 10 11 10 2 0 4 -4 4 -10z m40 -5 c0 -2 -7 -5
-15 -9 -9 -3 -15 0 -15 9 0 9 6 12 15 9 8 -4 15 -7 15 -9z m57 -2 c-24 -6 -57
-34 -57 -48 0 -5 4 -4 9 4 12 19 31 4 31 -25 0 -16 5 -24 18 -23 9 0 12 3 5 5
-7 3 -9 12 -6 20 3 8 0 20 -6 28 -6 7 -8 16 -4 19 13 14 22 6 28 -23 9 -40 29
-40 21 1 -5 27 -4 28 9 15 8 -8 12 -22 9 -30 -3 -9 -1 -16 6 -16 6 0 8 -4 5
-10 -3 -5 -1 -10 6 -10 7 0 10 -3 7 -6 -4 -3 -15 -1 -26 5 -15 8 -23 5 -40
-14 -12 -14 -18 -25 -12 -25 5 0 7 -7 3 -16 -3 -9 -9 -12 -12 -7 -3 4 -17 10
-31 11 -14 2 -29 9 -35 14 -7 8 -4 9 8 4 16 -5 18 -2 12 27 -4 17 -11 36 -16
42 -5 5 -9 14 -9 20 0 15 51 45 75 44 18 -1 18 -2 2 -6z m43 -128 c-7 -9 -9
-15 -4 -14 14 3 44 -12 44 -23 0 -6 -6 -6 -14 1 -11 9 -16 9 -22 0 -10 -18
-24 23 -17 51 4 14 9 18 16 11 7 -7 6 -15 -3 -26z m93 20 c-3 -9 -8 -14 -10
-11 -3 3 -2 9 2 15 9 16 15 13 8 -4z m114 -91 c41 -42 81 -90 90 -105 10 -16
21 -29 25 -29 4 0 8 -6 8 -13 0 -7 11 -28 23 -47 35 -51 71 -167 70 -225 0
-27 -6 -97 -12 -155 -7 -58 -17 -145 -22 -195 -10 -94 -5 -267 12 -395 9 -70
16 -106 54 -272 15 -67 19 -118 10 -118 -3 0 -32 22 -64 48 -33 26 -77 57 -98
68 -33 17 -42 31 -70 99 -17 44 -39 123 -48 175 -9 52 -30 154 -47 225 -28
120 -30 140 -25 255 3 69 11 150 18 180 14 61 18 328 6 375 -11 40 -18 205
-10 205 4 0 40 -34 80 -76z m-137 56 c0 -5 -5 -10 -11 -10 -5 0 -7 5 -4 10 3
6 8 10 11 10 2 0 4 -4 4 -10z m-50 -49 c0 -6 -4 -13 -10 -16 -5 -3 -10 1 -10
9 0 9 5 16 10 16 6 0 10 -4 10 -9z m320 -11 c0 -5 -8 -10 -17 -10 -15 0 -16 2
-3 10 19 12 20 12 20 0z m-250 -4 c0 -3 -4 -8 -10 -11 -5 -3 -10 -1 -10 4 0 6
5 11 10 11 6 0 10 -2 10 -4z m-40 -20 c0 -8 8 -17 18 -19 14 -4 14 -6 -5 -12
-13 -4 -20 -11 -17 -16 3 -5 -7 -9 -23 -8 -28 0 -28 0 -4 10 18 7 22 15 19 34
-3 14 -1 25 3 25 5 0 9 -6 9 -14z m274 -11 c3 -8 1 -15 -4 -15 -6 0 -10 7 -10
15 0 8 2 15 4 15 2 0 6 -7 10 -15z m-299 -5 c-3 -5 -10 -10 -16 -10 -5 0 -9 5
-9 10 0 6 7 10 16 10 8 0 12 -4 9 -10z m40 -59 c-3 -6 2 -14 11 -19 11 -6 13
-11 5 -16 -6 -4 -11 -3 -11 3 0 6 -8 7 -17 4 -13 -5 -15 -2 -10 11 6 16 3 18
-23 14 -16 -3 -30 -1 -30 4 0 4 18 8 41 8 22 0 38 -4 34 -9z m45 -55 c0 -3 -4
-8 -10 -11 -5 -3 -10 -1 -10 4 0 6 5 11 10 11 6 0 10 -2 10 -4z m-300 -48 c0
-5 -7 -3 -15 6 -8 8 -15 18 -15 22 0 3 7 1 15 -6 8 -7 15 -17 15 -22z m-20 -6
c0 -13 -12 -22 -22 -16 -10 6 -1 24 13 24 5 0 9 -4 9 -8z m47 -41 c0 -11 -5
-17 -9 -15 -11 7 -10 34 1 34 6 0 9 -9 8 -19z m1603 -16 c0 -11 -50 -52 -55
-45 -3 6 -2 10 4 10 5 0 12 8 15 18 4 10 13 19 21 19 8 0 15 -1 15 -2z m-1759
-30 c5 4 9 2 9 -4 0 -5 -9 -9 -20 -8 -11 1 -20 2 -20 3 0 1 3 11 7 21 7 17 8
17 11 0 2 -9 8 -15 13 -12z m59 15 c8 -5 11 -10 5 -10 -5 0 -17 5 -25 10 -8 5
-10 10 -5 10 6 0 17 -5 25 -10z m1701 -82 c-70 -141 -117 -222 -130 -226 -11
-4 128 277 151 306 27 32 17 -5 -21 -80z m-1716 62 c3 -6 -1 -7 -9 -4 -18 7
-21 14 -7 14 6 0 13 -4 16 -10z m15 -25 c-6 -8 -9 -18 -7 -23 3 -4 1 -14 -5
-22 -8 -12 -9 -11 -4 3 4 12 2 17 -6 14 -7 -2 -22 0 -33 6 -16 8 -18 7 -7 -4
6 -7 12 -19 12 -27 0 -7 -6 -12 -12 -9 -7 2 -13 9 -13 15 0 6 -9 18 -20 26
-19 15 -19 15 10 14 17 -1 35 -5 41 -10 6 -5 18 0 29 12 21 23 34 27 15 5z
m1367 -21 c-3 -3 -12 -4 -19 -1 -8 3 -5 6 6 6 11 1 17 -2 13 -5z m-1417 -71
c0 -2 -9 -1 -20 2 -11 4 -20 2 -20 -4 0 -6 -5 -11 -11 -11 -6 0 -8 9 -3 23 7
22 7 22 -15 3 -18 -17 -21 -17 -15 -3 3 9 11 17 16 17 6 0 7 7 4 15 -3 10 7 6
29 -11 19 -14 35 -28 35 -31z m1664 15 c-4 -13 -13 -32 -22 -43 l-14 -20 7 20
c4 11 10 30 12 43 3 12 10 22 15 22 5 0 6 -10 2 -22z m-1356 -28 c7 -13 7 -17
-4 -17 -7 0 -11 4 -8 9 3 4 1 8 -3 8 -5 0 -14 9 -21 20 -11 19 -11 19 6 9 11
-7 24 -20 30 -29z m1280 -36 c-6 -21 -12 -46 -13 -54 -11 -87 -21 -127 -42
-158 l-24 -37 30 33 c67 71 44 21 -29 -64 -29 -35 -48 -65 -44 -74 3 -8 2 -11
-2 -7 -4 4 -14 2 -21 -5 -11 -9 -16 -9 -22 0 -4 8 -11 5 -19 -8 -10 -17 -9
-18 6 -13 9 3 -4 -16 -31 -44 -26 -27 -45 -52 -42 -56 3 -4 3 -5 0 -3 -3 2
-37 -27 -75 -64 -49 -47 -68 -73 -64 -84 7 -18 -3 -20 -25 -7 -20 13 43 84
190 215 19 17 25 30 22 48 -3 14 2 39 11 55 8 17 25 59 37 94 24 69 59 133 59
109 0 -8 -9 -40 -21 -70 -11 -30 -23 -64 -25 -75 -7 -33 35 64 56 129 17 51
90 189 97 182 1 -1 -3 -20 -9 -42z m172 -56 c0 -4 -7 -8 -16 -8 -8 0 -12 -4
-9 -10 3 -5 2 -10 -3 -10 -16 0 -22 13 -12 25 11 13 40 16 40 3z m-1677 -109
c-8 -8 -13 -7 -18 2 -5 8 -4 10 3 5 7 -4 12 -2 12 5 0 7 3 9 7 6 4 -4 2 -12
-4 -18z m120 -17 c-11 -31 -34 -51 -55 -47 -32 7 -32 13 1 20 21 4 33 14 37
31 3 13 10 21 15 19 4 -3 5 -13 2 -23z m1521 9 c-10 -10 -21 -17 -23 -15 -6 6
20 34 32 34 6 0 2 -8 -9 -19z m-35 -33 c-1 -16 -87 -93 -95 -86 -6 6 77 98 89
98 4 0 7 -6 6 -12z m-291 -52 c-6 -11 -17 -27 -25 -34 -15 -16 -18 -36 -3 -27
6 3 10 1 10 -5 0 -7 -6 -10 -12 -7 -7 2 -12 12 -12 21 1 9 -2 16 -8 16 -5 0
-6 5 -3 10 4 6 10 8 15 5 5 -3 14 5 21 17 11 21 11 22 -4 9 -10 -7 -17 -9 -17
-4 0 15 10 22 30 20 15 -1 17 -5 8 -21z m257 -55 c-16 -16 -33 -27 -36 -25 -4
2 -14 -5 -24 -16 -10 -11 -24 -20 -32 -20 -7 0 -13 -4 -13 -8 0 -4 -30 -19
-66 -32 -36 -14 -70 -31 -76 -37 -6 -7 -15 -13 -21 -13 -26 0 56 59 139 100
49 24 100 52 113 62 38 29 49 21 16 -11z m-305 -106 c-19 -31 -40 -46 -40 -29
0 10 22 48 39 67 24 29 25 1 1 -38z m364 46 c3 -5 -2 -15 -12 -22 -15 -13 -16
-12 -4 3 10 13 10 17 0 21 -9 4 -9 6 -1 6 6 1 14 -3 17 -8z m-127 -51 c11 -16
9 -21 -9 -34 -20 -14 -23 -14 -36 5 -12 18 -12 22 4 34 25 19 27 18 41 -5z
m-91 -29 c-16 -11 -33 -26 -38 -34 -4 -8 -32 -21 -60 -27 -29 -7 -61 -19 -71
-28 -9 -8 -20 -12 -25 -7 -4 4 -1 10 6 12 7 3 21 13 30 22 9 9 40 28 67 41 28
13 57 27 65 31 8 4 24 8 35 8 17 1 15 -2 -9 -18z m109 -71 c-12 -19 -22 -10
-17 16 4 22 6 24 14 10 5 -9 6 -21 3 -26z m-155 -40 c0 -16 6 -30 13 -33 6 -2
-13 -9 -43 -15 -30 -6 -75 -16 -100 -22 -24 -6 -55 -8 -69 -5 l-24 6 25 24
c45 41 157 88 186 78 6 -3 12 -18 12 -33z m30 -64 c0 -2 -7 -9 -15 -16 -12
-10 -15 -10 -15 4 0 9 7 16 15 16 8 0 15 -2 15 -4z m-137 -41 c-8 -22 -56 -45
-93 -45 -42 0 -38 14 13 39 51 25 89 28 80 6z m-173 -25 c0 -5 -5 -10 -11 -10
-5 0 -7 5 -4 10 3 6 8 10 11 10 2 0 4 -4 4 -10z m130 -40 c-8 -5 -19 -10 -25
-10 -5 0 -3 5 5 10 8 5 20 10 25 10 6 0 3 -5 -5 -10z m-90 -17 c-8 -3 -22 -11
-30 -17 -13 -10 -13 -9 -1 7 7 9 21 17 30 16 13 0 14 -1 1 -6z m-70 -53 c0 -5
-5 -10 -11 -10 -5 0 -7 5 -4 10 3 6 8 10 11 10 2 0 4 -4 4 -10z m770 -86 c0
-3 -6 -12 -14 -19 -17 -17 -30 -7 -15 12 12 13 29 18 29 7z m-27 -151 c-7 -2
-19 -2 -25 0 -7 3 -2 5 12 5 14 0 19 -2 13 -5z m-36 -35 c-3 -8 -6 -5 -6 6 -1
11 2 17 5 13 3 -3 4 -12 1 -19z m34 -86 c-6 -2 -9 -8 -6 -12 3 -5 1 -11 -4
-15 -11 -6 -7 28 5 47 6 9 9 8 12 -2 3 -8 0 -16 -7 -18z m-131 -72 c0 -5 -2
-10 -4 -10 -3 0 -8 5 -11 10 -3 6 -1 10 4 10 6 0 11 -4 11 -10z m-69 -112
c-11 -11 -13 -10 -8 5 4 9 2 17 -3 17 -6 0 -10 5 -10 12 0 8 6 6 17 -5 14 -14
15 -19 4 -29z m39 32 c0 -6 11 -8 25 -4 20 5 25 2 25 -12 0 -14 -3 -15 -8 -6
-5 7 -16 10 -25 6 -9 -3 -23 1 -32 10 -15 14 -15 16 -1 16 9 0 16 -5 16 -10z
m-110 -61 c0 -6 -4 -7 -10 -4 -5 3 -10 11 -10 16 0 6 5 7 10 4 6 -3 10 -11 10
-16z m165 -39 c3 -5 1 -10 -4 -10 -6 0 -11 5 -11 10 0 6 2 10 4 10 3 0 8 -4
11 -10z m-279 -141 c3 -6 1 -16 -6 -22 -10 -9 -11 -9 -6 1 4 6 2 12 -3 12 -6
0 -11 5 -11 10 0 13 17 13 26 -1z m11 -53 c0 -8 -9 -17 -19 -19 -30 -8 -15 21
18 33 0 0 1 -6 1 -14z"/>
<path d="M3152 7260 c3 -8 1 -23 -4 -34 -8 -14 -7 -16 2 -11 7 4 16 1 21 -6 6
-10 8 -6 6 11 -1 14 -8 32 -16 40 -13 13 -14 13 -9 0z"/>
<path d="M4496 7213 c-6 -14 -5 -15 5 -6 7 7 10 15 7 18 -3 3 -9 -2 -12 -12z"/>
<path d="M4448 7166 c-14 -14 -29 -22 -32 -19 -3 4 -6 0 -6 -8 0 -8 -14 -27
-31 -42 -17 -15 -27 -27 -22 -27 5 0 35 27 68 60 59 60 74 82 23 36z"/>
<path d="M3190 7144 c0 -10 5 -14 16 -10 8 3 12 2 9 -4 -3 -6 -1 -10 4 -10 14
0 14 13 -1 28 -17 17 -28 15 -28 -4z"/>
<path d="M3195 7109 c-4 -5 -13 -8 -21 -5 -8 3 -14 1 -14 -4 0 -6 6 -10 13
-10 8 0 20 -11 27 -25 7 -14 18 -25 23 -25 5 0 2 12 -8 26 -13 20 -14 28 -5
34 8 5 9 10 2 14 -6 3 -14 1 -17 -5z"/>
<path d="M4687 7114 c20 -5 21 -8 12 -26 -9 -17 -9 -20 3 -16 11 5 14 -2 11
-28 -1 -19 1 -33 5 -30 4 2 8 -4 8 -14 0 -15 -6 -18 -26 -14 -19 4 -21 3 -10
-5 8 -5 11 -13 7 -17 -4 -4 1 -13 11 -21 14 -10 14 -12 1 -8 -10 4 -16 0 -16
-10 0 -11 6 -15 19 -12 10 3 16 2 13 -3 -3 -4 5 -10 18 -14 32 -8 39 -7 32 4
-3 6 -1 10 5 10 6 0 8 5 5 10 -3 6 1 10 9 10 19 0 22 -36 4 -43 -44 -15 301
-29 372 -14 57 12 65 19 41 41 -17 15 -20 15 -34 1 -9 -8 -25 -15 -37 -15 -13
0 -19 -4 -14 -11 4 -8 1 -8 -12 -1 -11 5 -23 8 -29 6 -14 -5 -50 24 -41 33 4
4 10 3 14 -3 12 -16 31 -10 48 15 17 23 16 25 -15 53 -33 30 -62 30 -39 0 7
-10 -1 -5 -18 10 -20 19 -33 25 -40 18 -7 -7 -21 0 -42 21 -28 28 -62 33 -46
7 4 -7 2 -8 -4 -4 -6 4 -9 13 -6 21 4 10 -7 17 -38 26 -61 17 -66 18 -133 23
-33 3 -50 2 -38 0z m73 -15 c13 -9 13 -10 -2 -6 -9 3 -18 1 -21 -6 -2 -6 -6
-4 -10 6 -7 19 10 23 33 6z m44 -27 c-7 -4 -13 -14 -15 -22 -3 -13 -7 -12 -23
4 -16 16 -16 18 -3 13 9 -3 19 -2 22 3 4 6 12 10 18 10 9 0 9 -2 1 -8z m26
-19 c0 -21 -3 -24 -9 -14 -5 8 -7 20 -4 28 8 21 13 15 13 -14z m-61 -19 c14
-12 -19 -1 -35 12 -18 14 -18 14 6 3 14 -6 27 -13 29 -15z m28 -34 c-1 -21
-27 -28 -27 -7 0 6 -8 3 -16 -8 -15 -20 -16 -20 -12 0 2 10 14 22 28 26 14 4
26 7 27 8 1 1 1 -8 0 -19z m83 -52 c0 -4 -4 -10 -10 -13 -5 -3 -10 0 -10 8 0
8 -7 17 -15 21 -8 3 -15 10 -15 16 0 12 49 -20 50 -32z m74 0 c-6 -9 -41 -5
-51 7 -5 4 -3 5 4 1 6 -3 18 0 25 8 13 14 32 1 22 -16z m-168 13 c8 7 17 9 21
5 3 -3 1 -6 -6 -6 -7 0 -10 -4 -6 -9 3 -5 -4 -12 -15 -16 -11 -3 -20 -11 -20
-16 0 -5 -5 -9 -12 -9 -6 0 -8 3 -5 7 4 3 0 15 -10 25 -9 11 -11 18 -5 18 7 0
12 -6 12 -12 0 -7 6 -4 12 7 8 13 13 15 16 7 3 -10 7 -10 18 -1z m304 0 c0 -5
-7 -14 -15 -21 -11 -9 -15 -9 -15 -1 0 7 -5 9 -12 5 -7 -4 -8 -3 -4 5 4 6 12
9 17 6 5 -4 9 -1 9 4 0 6 5 11 10 11 6 0 10 -4 10 -9z m-65 -19 c-3 -3 -11 0
-18 7 -9 10 -8 11 6 5 10 -3 15 -9 12 -12z m190 -42 c3 -5 -1 -10 -10 -10 -9
0 -13 5 -10 10 3 6 8 10 10 10 2 0 7 -4 10 -10z"/>
<path d="M3135 7080 c3 -5 8 -10 11 -10 2 0 4 5 4 10 0 6 -5 10 -11 10 -5 0
-7 -4 -4 -10z"/>
<path d="M3241 7085 c0 -5 6 -19 14 -29 8 -11 15 -15 15 -10 0 6 -7 19 -15 30
-8 10 -14 15 -14 9z"/>
<path d="M3171 7064 c0 -11 3 -14 6 -6 3 7 2 16 -1 19 -3 4 -6 -2 -5 -13z"/>
<path d="M3961 7064 c0 -11 3 -14 6 -6 3 7 2 16 -1 19 -3 4 -6 -2 -5 -13z"/>
<path d="M3110 7055 c0 -8 4 -15 10 -15 5 0 7 7 4 15 -4 8 -8 15 -10 15 -2 0
-4 -7 -4 -15z"/>
<path d="M3800 7049 c0 -5 5 -7 10 -4 6 3 10 8 10 11 0 2 -4 4 -10 4 -5 0 -10
-5 -10 -11z"/>
<path d="M4282 7001 c-77 -81 -77 -86 1 -11 37 35 67 66 67 67 0 11 -22 -7
-68 -56z"/>
<path d="M4416 7037 c3 -10 9 -15 12 -12 3 3 0 11 -7 18 -10 9 -11 8 -5 -6z"/>
<path d="M4636 7042 c-2 -4 -1 -14 4 -22 7 -11 9 -9 7 8 -1 24 -3 26 -11 14z"/>
<path d="M3947 7033 c-2 -5 -1 -19 4 -33 7 -23 7 -23 8 8 1 31 -3 40 -12 25z"/>
<path d="M3144 7015 c-4 -8 -10 -13 -14 -10 -5 3 -11 1 -15 -5 -9 -14 19 -12
34 3 10 10 11 9 6 -5 -4 -10 -3 -18 3 -18 12 0 24 29 16 41 -8 14 -24 11 -30
-6z"/>
<path d="M3046 7005 c4 -8 11 -15 16 -15 6 0 5 6 -2 15 -7 8 -14 15 -16 15 -2
0 -1 -7 2 -15z"/>
<path d="M4338 7000 c-20 -19 -24 -35 -6 -24 7 4 8 3 4 -4 -4 -6 -12 -9 -19
-6 -16 6 -54 -22 -44 -32 4 -5 11 -3 15 3 4 6 16 12 27 14 11 3 26 17 33 32
17 34 13 40 -10 17z"/>
<path d="M3210 7006 c0 -2 7 -9 15 -16 9 -7 15 -8 15 -2 0 5 -7 12 -15 16 -8
3 -15 4 -15 2z"/>
<path d="M3290 6987 c0 -14 -5 -17 -20 -12 -11 3 -20 3 -21 -2 0 -4 -2 -22 -5
-40 -3 -25 0 -31 10 -27 15 6 18 44 3 44 -4 0 -5 5 -1 11 4 8 9 7 15 -2 4 -7
6 -16 3 -20 -2 -4 0 -10 5 -13 5 -4 12 -2 16 4 3 5 12 10 18 10 8 0 8 -3 -1
-9 -10 -6 -10 -10 3 -21 13 -11 14 -10 9 5 -5 13 -4 16 5 10 10 -6 11 -3 2 13
-7 13 -17 19 -26 16 -8 -4 -15 -2 -15 4 0 6 4 12 10 14 6 2 6 8 0 18 -8 13
-10 12 -10 -3z"/>
<path d="M3883 6975 c0 -8 4 -12 9 -9 5 3 6 10 3 15 -9 13 -12 11 -12 -6z"/>
<path d="M3168 6968 c-24 -8 -26 -12 -14 -24 8 -8 19 -14 24 -14 6 0 8 -10 4
-22 -3 -13 -1 -19 5 -15 15 10 24 -18 10 -32 -8 -8 -8 -14 1 -23 7 -7 12 -20
12 -31 0 -10 5 -15 10 -12 6 3 20 3 31 0 17 -6 19 -9 8 -17 -10 -7 -8 -8 9 -5
12 3 22 1 22 -4 0 -9 -14 -13 -37 -10 -6 1 -10 -9 -8 -24 1 -14 -2 -28 -7 -31
-4 -3 -6 -10 -3 -15 4 -5 -1 -9 -9 -9 -10 0 -13 -6 -10 -15 3 -8 0 -17 -7 -20
-16 -6 -24 -85 -8 -85 6 0 8 4 5 9 -3 5 2 15 11 22 9 8 14 10 11 4 -7 -11 17
-37 26 -28 3 3 1 12 -5 20 -6 7 -9 22 -6 33 3 11 1 20 -4 20 -5 0 -9 -8 -9
-17 0 -14 -3 -14 -12 -5 -10 10 -10 15 2 22 22 14 34 7 35 -21 1 -13 5 -32 10
-42 6 -15 10 -16 17 -5 8 11 9 10 6 -1 -5 -17 -38 -24 -54 -10 -8 6 -13 3 -17
-11 -4 -17 -3 -19 9 -9 11 9 14 9 14 0 0 -7 5 -9 10 -6 6 4 18 1 26 -6 12 -10
13 -9 8 5 -8 20 0 20 31 0 14 -9 25 -12 25 -6 0 6 -3 12 -7 14 -9 3 -53 64
-53 72 0 14 30 -8 36 -26 3 -11 8 -17 11 -14 3 2 16 1 29 -4 35 -14 55 -3 48
26 -4 15 -2 24 5 24 6 0 11 9 11 20 0 11 4 20 9 20 5 0 11 10 14 22 11 39 -54
197 -84 206 -11 4 -11 2 -2 -9 10 -10 10 -16 0 -27 -10 -13 -9 -15 10 -10 20
5 22 3 17 -18 -4 -15 0 -34 11 -50 9 -15 12 -23 6 -20 -6 4 -11 2 -11 -4 0 -6
11 -16 25 -22 26 -12 35 -30 13 -25 -7 1 -12 -6 -10 -15 2 -10 -2 -18 -8 -18
-5 0 -10 7 -10 15 0 13 -18 20 -42 16 -5 0 -8 7 -8 17 0 14 -2 15 -10 2 -5 -8
-10 -10 -10 -4 0 5 7 19 15 30 13 17 14 17 15 2 0 -10 9 -22 21 -28 16 -9 14
-3 -11 32 -17 23 -26 44 -21 46 6 2 11 8 11 13 0 6 -4 7 -10 4 -5 -3 -10 0
-11 7 0 7 -5 3 -11 -9 -15 -31 -32 -29 -26 2 4 19 1 25 -13 25 -11 0 -19 5
-19 11 0 7 10 9 24 5 33 -8 56 2 49 21 -5 13 -7 13 -15 -1 -13 -23 -31 -20
-25 5 7 25 -14 35 -42 19 -17 -9 -19 -14 -11 -31 6 -11 8 -25 4 -31 -5 -7 -2
-9 7 -4 8 4 5 1 -5 -8 -27 -22 -34 -13 -34 46 -1 28 -6 54 -12 58 -6 4 -12 17
-13 28 -1 12 -1 22 -2 21 0 0 -12 -5 -27 -11z m132 -72 c0 -3 -4 -8 -10 -11
-5 -3 -10 -1 -10 4 0 6 5 11 10 11 6 0 10 -2 10 -4z m-13 -88 c-3 -8 -6 -5 -6
6 -1 11 2 17 5 13 3 -3 4 -12 1 -19z m53 -38 c0 -5 -4 -10 -10 -10 -5 0 -10 5
-10 10 0 6 5 10 10 10 6 0 10 -4 10 -10z m-24 -42 c-4 -29 -36 -50 -56 -38
-12 8 -12 10 5 11 11 1 23 1 28 0 4 0 7 13 7 30 0 17 4 28 10 24 5 -3 8 -16 6
-27z m-31 2 c3 -5 -1 -10 -9 -10 -9 0 -16 5 -16 10 0 6 4 10 9 10 6 0 13 -4
16 -10z m68 -77 c4 -19 2 -33 -3 -33 -6 0 -10 11 -10 25 0 14 -4 25 -10 25
-15 0 -12 -37 5 -54 19 -18 19 -27 1 -20 -8 3 -17 16 -20 30 -4 13 -14 24 -24
24 -13 1 -10 7 13 25 33 27 40 24 48 -22z m27 27 c0 -5 -5 -10 -11 -10 -5 0
-7 5 -4 10 3 6 8 10 11 10 2 0 4 -4 4 -10z"/>
<path d="M3046 6962 c-6 -10 5 -234 11 -228 3 2 4 32 4 65 0 45 4 63 16 69 13
8 13 13 4 28 -11 16 -12 16 -7 2 5 -18 -8 -25 -17 -10 -8 12 12 54 22 47 5 -3
12 -1 16 4 3 6 -4 8 -16 6 -15 -3 -19 0 -15 10 6 16 -9 21 -18 7z"/>
<path d="M4623 6944 c27 -14 51 -23 54 -20 6 5 -81 47 -95 46 -4 -1 15 -12 41
-26z"/>
<path d="M3931 6924 c0 -11 3 -14 6 -6 3 7 2 16 -1 19 -3 4 -6 -2 -5 -13z"/>
<path d="M4219 6903 c-13 -16 -12 -17 4 -4 9 7 17 15 17 17 0 8 -8 3 -21 -13z"/>
<path d="M4085 6853 c-21 -32 -31 -52 -22 -44 14 11 17 11 17 0 0 -7 14 2 31
19 18 18 29 35 27 38 -3 3 -15 -7 -27 -22 -12 -15 -24 -24 -28 -21 -3 4 1 15
9 24 17 20 41 63 35 63 -2 0 -21 -26 -42 -57z"/>
<path d="M3875 6890 c-3 -5 -1 -10 4 -10 6 0 11 5 11 10 0 6 -2 10 -4 10 -3 0
-8 -4 -11 -10z"/>
<path d="M4179 6873 c-13 -16 -12 -17 4 -4 16 13 21 21 13 21 -2 0 -10 -8 -17
-17z"/>
<path d="M3110 6861 c0 -6 5 -13 10 -16 6 -3 10 1 10 9 0 9 -4 16 -10 16 -5 0
-10 -4 -10 -9z"/>
<path d="M3110 6814 c0 -14 -2 -16 -9 -5 -6 9 -11 10 -15 2 -4 -6 -1 -18 7
-26 13 -13 16 -11 21 11 4 15 5 29 1 32 -3 3 -5 -3 -5 -14z"/>
<path d="M3185 6756 c-27 -29 -29 -49 -5 -71 11 -10 20 -13 20 -7 0 7 -4 12
-9 12 -19 0 -19 32 0 51 11 11 19 24 17 28 -2 4 -12 -2 -23 -13z"/>
<path d="M3093 6740 c1 -19 25 -36 35 -25 3 3 0 5 -6 5 -7 0 -12 6 -12 14 0 8
-4 17 -9 21 -6 3 -9 -4 -8 -15z"/>
<path d="M3067 6723 c-4 -3 -6 -27 -6 -52 l2 -46 7 50 c8 53 7 59 -3 48z"/>
<path d="M3442 6660 c-14 -23 -16 -33 -3 -26 5 3 9 -6 9 -19 0 -23 -2 -24 -14
-8 -12 16 -13 15 -15 -12 -1 -16 -1 -34 0 -38 1 -5 -3 -5 -9 -2 -6 4 -20 -1
-31 -11 -17 -16 -19 -16 -19 -1 0 10 -4 17 -9 17 -6 0 -6 -12 1 -31 12 -35 8
-42 -26 -43 -25 -2 -65 -43 -67 -68 0 -7 -4 -3 -9 10 -5 12 -14 22 -20 22 -5
0 -10 5 -10 11 0 6 9 9 20 6 32 -8 23 6 -15 24 -28 13 -35 13 -39 3 -3 -8 -12
-11 -21 -8 -11 5 -18 0 -22 -16 -6 -22 -7 -22 -21 -4 -14 18 -14 18 -7 -1 4
-11 13 -35 19 -52 7 -18 15 -36 19 -39 4 -4 7 -16 7 -26 0 -10 24 -43 54 -73
29 -30 48 -56 42 -59 -6 -2 -4 -5 4 -5 8 -1 21 -10 28 -21 7 -12 17 -18 21
-15 5 3 15 -8 22 -23 8 -19 19 -28 33 -27 15 1 25 16 41 66 12 35 26 73 32 84
18 33 45 185 44 250 0 33 -6 81 -13 108 -12 43 -14 46 -26 27z m23 -98 c-2 -3
0 -13 5 -22 7 -13 5 -20 -6 -24 -12 -4 -15 -2 -10 9 3 8 1 15 -4 15 -11 0 -13
-11 -4 -34 3 -9 11 -13 18 -9 7 4 6 1 -2 -9 -7 -8 -9 -23 -6 -33 6 -15 4 -16
-16 -5 -21 11 -21 13 -6 22 19 11 12 30 -9 22 -12 -5 -12 -1 1 25 8 17 13 34
10 39 -2 4 4 8 14 8 11 0 17 -2 15 -4z m-55 -42 c0 -5 -2 -10 -4 -10 -3 0 -8
5 -11 10 -3 6 -1 10 4 10 6 0 11 -4 11 -10z"/>
<path d="M3070 6604 c0 -10 5 -26 10 -34 8 -11 9 -7 4 15 -8 37 -14 45 -14 19z"/>
<path d="M3091 6535 c-1 -21 15 -53 22 -45 3 3 8 16 12 30 7 22 6 23 -8 12
-13 -11 -16 -10 -20 5 -4 16 -5 16 -6 -2z"/>
<path d="M3175 6530 c-3 -5 -2 -10 4 -10 5 0 13 5 16 10 3 6 2 10 -4 10 -5 0
-13 -4 -16 -10z"/>
<path d="M3305 6500 c3 -5 8 -10 11 -10 2 0 4 5 4 10 0 6 -5 10 -11 10 -5 0
-7 -4 -4 -10z"/>
<path d="M2336 6285 c10 -8 23 -15 28 -15 6 0 1 7 -10 15 -10 8 -23 15 -28 15
-6 0 -1 -7 10 -15z"/>
<path d="M1965 6230 c3 -5 8 -10 11 -10 2 0 4 5 4 10 0 6 -5 10 -11 10 -5 0
-7 -4 -4 -10z"/>
<path d="M2005 6231 c-3 -5 -2 -12 3 -15 5 -3 9 1 9 9 0 17 -3 19 -12 6z"/>
<path d="M2035 6230 c-3 -5 -1 -10 4 -10 6 0 11 5 11 10 0 6 -2 10 -4 10 -3 0
-8 -4 -11 -10z"/>
<path d="M2540 6202 c0 -5 7 -12 15 -16 8 -3 15 -12 15 -20 0 -9 6 -13 13 -10
7 2 13 -4 14 -16 1 -11 -2 -20 -8 -20 -5 0 -9 -8 -9 -17 0 -15 2 -15 9 -4 5 8
19 15 30 16 11 1 17 -3 14 -8 -4 -6 -1 -7 7 -2 9 6 11 4 5 -5 -6 -9 -4 -11 5
-5 9 5 11 4 6 -4 -6 -9 -13 -9 -30 3 -19 12 -23 12 -23 1 0 -8 4 -12 9 -9 4 3
8 -1 8 -8 0 -7 14 -21 32 -31 23 -13 28 -21 19 -26 -10 -6 -9 -10 5 -15 10 -4
24 0 34 9 15 14 19 13 35 -5 17 -19 17 -21 0 -40 -10 -11 -14 -20 -9 -20 5 0
15 10 22 21 12 19 10 25 -18 54 -19 20 -38 31 -47 28 -9 -4 -13 0 -11 9 4 20
-49 81 -63 72 -7 -4 -9 -3 -6 3 6 9 -12 29 -55 62 -10 8 -18 9 -18 3z m134
-137 c-4 -8 -11 -12 -17 -8 -8 5 -7 8 1 11 7 2 9 9 6 14 -4 7 -2 8 4 4 6 -4 9
-13 6 -21z m37 -38 c-13 -13 -26 -3 -16 12 3 6 11 8 17 5 6 -4 6 -10 -1 -17z"/>
<path d="M3976 6185 c-6 -24 -26 -35 -26 -14 0 5 -5 7 -10 4 -6 -3 -13 1 -16
9 -4 10 -18 16 -38 15 -24 -1 -26 -2 -11 -7 31 -10 29 -31 -1 -26 -15 3 -37
-2 -50 -11 -14 -9 -30 -15 -37 -14 -26 3 -58 -14 -53 -28 3 -8 2 -12 -3 -9 -5
3 -20 -5 -32 -19 -13 -13 -31 -25 -39 -25 -8 0 -22 -5 -30 -10 -11 -7 -5 -8
20 -4 19 4 41 11 48 17 9 7 11 6 6 -7 -3 -9 -14 -16 -23 -16 -17 -1 39 -25
104 -44 22 -6 55 -20 73 -30 32 -17 35 -17 53 0 20 18 27 6 8 -13 -8 -8 9 -15
61 -27 40 -9 75 -14 78 -11 9 8 -3 15 -30 17 -18 2 -24 7 -20 16 4 12 1 12
-16 3 -11 -6 -27 -11 -35 -11 -20 0 -17 50 3 50 8 0 24 7 34 15 16 12 22 12
28 2 4 -6 8 -7 8 -1 0 5 -7 19 -16 30 -15 19 -16 19 -9 -1 5 -15 3 -17 -6 -8
-13 13 -3 37 12 28 9 -6 13 15 9 44 -1 11 3 10 15 -3 9 -9 14 -23 11 -31 -7
-19 8 -19 24 0 10 12 10 15 -1 15 -8 0 -5 6 7 15 19 15 19 15 0 8 -16 -5 -14
0 9 30 16 20 31 34 34 31 3 -2 -1 -10 -7 -16 -17 -17 -15 -23 14 -37 24 -10
26 -10 19 6 -11 28 -11 31 0 33 6 2 16 -8 23 -21 13 -24 13 -24 9 6 -4 26 -3
27 8 12 7 -9 17 -17 24 -17 6 0 11 -5 11 -10 0 -6 6 -5 14 2 8 7 12 17 9 22
-3 4 -9 2 -14 -5 -5 -8 -9 -9 -9 -3 0 19 12 24 32 13 10 -5 16 -14 13 -20 -4
-5 0 -9 7 -10 7 0 4 -4 -7 -9 -11 -5 -14 -9 -7 -9 7 -1 10 -7 7 -13 -4 -7 0
-5 9 6 8 10 19 15 25 11 6 -3 11 -1 11 5 0 6 5 8 12 4 7 -5 5 -11 -7 -21 -11
-7 -13 -13 -6 -13 7 0 9 -4 6 -10 -3 -5 1 -10 9 -10 9 0 16 6 16 14 0 8 5 18
12 22 8 5 9 0 6 -14 -4 -12 -2 -22 4 -22 5 0 6 -5 2 -11 -3 -6 6 -3 22 7 l29
18 -19 -22 c-18 -21 -18 -23 -2 -41 10 -11 25 -20 34 -20 41 -2 50 -5 45 -18
-6 -14 2 -15 31 -4 17 6 16 9 -8 24 -15 10 -31 15 -36 12 -14 -9 -12 9 2 23
16 16 2 28 -16 13 -11 -9 -15 -5 -20 23 -5 25 -11 34 -21 29 -9 -3 -15 1 -15
11 0 19 -16 28 -116 63 -62 21 -98 27 -166 28 -47 0 -84 3 -81 8 2 4 -7 7 -20
7 -18 0 -27 -7 -31 -25z m-72 -80 c3 -8 1 -15 -4 -15 -6 0 -10 7 -10 15 0 8 2
15 4 15 2 0 6 -7 10 -15z m-8 -25 c9 0 12 -5 8 -11 -5 -9 1 -10 20 -5 19 5 26
3 26 -8 0 -8 -5 -18 -11 -21 -5 -4 -8 -12 -6 -18 2 -7 -7 -22 -20 -34 -25 -24
-39 -30 -28 -13 3 6 -4 10 -17 10 -13 0 -29 5 -35 11 -7 7 -20 12 -30 14 -35
3 -73 25 -73 42 0 15 2 15 16 -3 15 -19 15 -18 11 4 -3 12 -1 22 4 22 8 0 13
-22 10 -42 -2 -14 26 -8 40 8 10 13 10 17 -2 26 -11 8 -11 9 3 4 10 -3 22 2
28 12 11 16 11 16 6 0 -4 -13 0 -18 13 -18 14 0 18 6 15 23 -2 12 -2 16 2 10
3 -7 12 -13 20 -13z m84 -30 c0 -5 -4 -10 -10 -10 -5 0 -10 5 -10 10 0 6 5 10
10 10 6 0 10 -4 10 -10z m439 -29 c7 -5 9 -11 5 -14 -5 -3 -15 1 -22 9 -14 16
-5 18 17 5z"/>
<path d="M3885 6011 c-3 -5 -1 -12 5 -16 5 -3 10 1 10 9 0 18 -6 21 -15 7z"/>
<path d="M3845 6000 c-3 -6 1 -7 9 -4 18 7 21 14 7 14 -6 0 -13 -4 -16 -10z"/>
<path d="M2136 6181 c-15 -17 -15 -19 -1 -25 26 -10 31 -7 33 19 2 30 -9 32
-32 6z"/>
<path d="M2065 6173 c11 -11 25 -20 31 -20 14 0 14 24 0 24 -6 0 -20 4 -31 8
l-20 8 20 -20z"/>
<path d="M2220 6161 c0 -21 -2 -22 -17 -10 -15 13 -16 10 -10 -30 3 -25 12
-48 21 -53 13 -7 14 -12 3 -29 -10 -16 -9 -21 3 -29 18 -11 41 -13 24 -2 -12
8 -12 61 0 80 4 7 2 20 -5 28 -9 11 -10 17 -2 22 8 5 7 13 -3 26 -14 19 -14
19 -14 -3z"/>
<path d="M2329 6105 c-1 -5 -1 -13 0 -17 0 -5 -3 -8 -8 -8 -5 0 -12 -11 -15
-25 -4 -14 -11 -25 -17 -25 -5 0 2 -12 16 -27 16 -18 23 -34 19 -47 -4 -11 -2
-16 4 -12 21 13 20 44 -2 51 l-21 8 22 4 c30 6 39 43 19 80 -8 15 -16 24 -17
18z"/>
<path d="M3330 6073 c-3 -54 -3 -55 -14 -72 -6 -9 -5 -12 4 -9 7 2 19 23 25
46 7 23 9 40 5 37 -5 -3 -11 5 -13 17 -3 14 -5 6 -7 -19z"/>
<path d="M2180 6063 c0 -25 15 -38 25 -22 4 6 0 18 -9 27 -15 15 -16 15 -16
-5z"/>
<path d="M3588 6043 c7 -3 16 -2 19 1 4 3 -2 6 -13 5 -11 0 -14 -3 -6 -6z"/>
<path d="M4382 5974 c-10 -11 -8 -15 7 -24 21 -11 54 -3 45 11 -12 20 -39 27
-52 13z m38 -14 c0 -5 -7 -7 -15 -4 -8 4 -15 8 -15 10 0 2 7 4 15 4 8 0 15 -4
15 -10z"/>
<path d="M1967 5953 c-10 -10 -8 -23 4 -23 5 0 8 4 5 9 -4 5 0 12 6 14 7 3 8
6 2 6 -6 1 -14 -2 -17 -6z"/>
<path d="M2761 5943 c-1 -12 4 -25 9 -28 12 -7 12 2 0 30 -8 19 -9 19 -9 -2z"/>
<path d="M4178 5948 c-4 -10 -18 -16 -60 -22 -26 -4 -34 -16 -10 -16 11 0 26
-2 34 -3 7 -2 9 -2 5 1 -5 2 4 10 19 18 33 17 45 10 18 -11 -18 -14 -17 -14
11 -13 17 0 44 4 60 8 29 7 29 8 -9 9 -22 0 -37 4 -33 7 3 4 0 13 -8 20 -17
17 -22 17 -27 2z"/>
<path d="M4303 5923 c9 -2 25 -2 35 0 9 3 1 5 -18 5 -19 0 -27 -2 -17 -5z"/>
<path d="M2297 5743 c-4 -3 -7 -11 -7 -17 0 -6 5 -5 12 2 6 6 9 14 7 17 -3 3
-9 2 -12 -2z"/>
<path d="M2745 5720 c3 -5 8 -10 11 -10 2 0 4 5 4 10 0 6 -5 10 -11 10 -5 0
-7 -4 -4 -10z"/>
<path d="M2320 5710 c0 -5 5 -10 10 -10 6 0 10 5 10 10 0 6 -4 10 -10 10 -5 0
-10 -4 -10 -10z"/>
<path d="M3382 5695 c-21 -22 -22 -24 -5 -41 17 -17 17 -17 -4 -12 -13 4 -24
1 -27 -8 -3 -9 0 -11 11 -7 13 5 13 2 -2 -20 -9 -15 -13 -27 -7 -27 6 0 8 -9
5 -20 -3 -11 -10 -20 -16 -20 -6 0 -8 3 -4 6 3 3 2 17 -3 30 -7 17 -6 24 2 24
8 0 8 4 -1 13 -11 10 -14 10 -18 0 -6 -18 -23 -16 -23 2 0 8 -4 15 -9 15 -11
0 -71 -67 -71 -80 0 -6 -6 -10 -13 -10 -24 0 -137 -127 -162 -182 -34 -75 -38
-100 -21 -123 8 -11 17 -17 21 -14 3 4 -1 14 -10 22 -19 20 -20 41 0 33 8 -3
15 -1 15 4 0 5 7 7 15 4 11 -5 13 -2 9 10 -3 8 -11 14 -16 13 -6 -1 -13 4 -15
11 -3 8 1 10 13 5 13 -5 16 -3 12 9 -4 8 -2 21 3 29 7 11 9 9 9 -7 0 -12 8
-25 18 -29 16 -7 15 -8 -3 -15 -16 -7 -17 -9 -3 -9 9 -1 21 -8 26 -17 8 -14
10 -12 16 10 4 15 4 31 1 36 -4 6 -2 10 4 10 5 0 13 -9 16 -20 3 -11 11 -20
18 -20 8 0 8 3 -1 12 -7 7 -12 20 -12 30 0 11 -5 15 -15 12 -8 -4 -17 1 -21
10 -3 9 -13 15 -22 14 -8 -2 -17 3 -20 11 -3 10 0 12 11 8 9 -3 19 -2 22 4 4
5 3 8 -2 7 -4 -2 -8 2 -8 7 0 6 5 9 12 9 6 -1 9 5 6 12 -3 8 0 14 6 14 6 0 11
6 11 14 0 20 17 29 26 15 4 -7 3 -9 -3 -6 -6 4 -13 -6 -15 -23 -5 -33 6 -40
17 -12 7 16 8 15 15 -3 8 -18 9 -18 9 -2 1 10 8 32 18 50 14 28 17 29 23 13 6
-17 7 -18 23 -1 13 12 15 21 7 30 -8 9 -6 14 4 18 10 4 17 -2 22 -15 6 -21 7
-20 20 8 8 16 12 22 10 12 -3 -10 3 -18 14 -21 27 -7 41 7 42 42 1 30 2 31 17
15 12 -12 13 -18 4 -21 -7 -3 -13 -9 -13 -15 0 -6 6 -6 15 2 8 6 19 9 25 5 18
-11 11 10 -10 28 -17 14 -19 21 -10 38 7 11 9 27 6 35 -8 21 2 17 29 -12 14
-15 22 -31 19 -36 -4 -6 4 -4 17 2 13 7 21 9 16 5 -4 -5 0 -17 10 -27 15 -17
15 -18 -2 -18 -14 0 -15 -3 -5 -15 6 -8 8 -20 4 -26 -5 -9 -11 -7 -21 7 -13
18 -14 17 -8 -9 9 -34 -10 -59 -39 -52 -12 3 -15 2 -8 -1 10 -5 10 -9 1 -20
-15 -19 -33 -18 -25 2 3 9 2 12 -5 9 -5 -4 -7 -14 -5 -23 4 -11 -8 -31 -34
-56 -22 -21 -40 -42 -40 -47 0 -5 21 11 46 36 25 25 49 45 55 45 5 0 9 7 9 15
0 8 6 15 13 15 15 0 77 74 77 92 0 8 7 23 15 34 16 21 20 54 7 54 -5 0 -14 10
-20 23 -6 12 -11 16 -11 9 -1 -7 -5 -10 -11 -7 -5 3 -10 1 -10 -6 0 -7 -3 -9
-6 -6 -4 4 -1 13 5 21 7 8 10 24 6 35 -9 28 -64 26 -93 -4z"/>
<path d="M2765 5650 c-3 -5 -1 -10 4 -10 6 0 11 5 11 10 0 6 -2 10 -4 10 -3 0
-8 -4 -11 -10z"/>
<path d="M2087 5639 c7 -7 15 -10 18 -7 3 3 -2 9 -12 12 -14 6 -15 5 -6 -5z"/>
<path d="M1790 5625 c7 -9 15 -13 17 -11 7 7 -7 26 -19 26 -6 0 -6 -6 2 -15z"/>
<path d="M2171 5584 c-17 -20 -29 -39 -26 -43 4 -3 13 3 21 14 8 11 21 28 30
38 29 36 7 27 -25 -9z"/>
<path d="M2781 5604 c-1 -11 -4 -24 -8 -27 -3 -4 -7 -18 -8 -32 0 -20 3 -24
22 -20 18 3 23 -1 22 -18 0 -12 -3 -16 -6 -9 -8 20 -19 13 -18 -13 0 -26 20
-53 32 -42 16 16 0 123 -17 112 -12 -7 -25 16 -13 24 6 3 7 15 2 26 -7 20 -8
20 -8 -1z"/>
<path d="M3400 5605 c0 -8 5 -15 10 -15 6 0 10 7 10 15 0 8 -4 15 -10 15 -5 0
-10 -7 -10 -15z"/>
<path d="M2205 5551 c-3 -5 -1 -12 5 -16 5 -3 10 1 10 9 0 18 -6 21 -15 7z"/>
<path d="M3390 5536 c0 -2 7 -7 16 -10 8 -3 12 -2 9 4 -6 10 -25 14 -25 6z"/>
<path d="M3354 5498 c-4 -7 -4 -10 1 -6 4 4 15 2 23 -5 12 -10 14 -9 11 2 -7
20 -26 25 -35 9z"/>
<path d="M2740 5489 c0 -5 5 -7 10 -4 6 3 10 8 10 11 0 2 -4 4 -10 4 -5 0 -10
-5 -10 -11z"/>
<path d="M3306 5485 c-18 -14 -18 -15 5 -34 13 -11 24 -19 24 -18 0 1 9 13 20
27 l20 25 -23 -19 c-18 -16 -25 -17 -35 -7 -9 10 -8 15 7 27 11 8 16 14 10 14
-5 0 -18 -7 -28 -15z"/>
<path d="M2730 5446 c0 -2 8 -10 18 -17 15 -13 16 -12 3 4 -13 16 -21 21 -21
13z"/>
<path d="M2600 5373 c0 -10 4 -14 8 -8 4 6 11 13 16 18 5 4 2 7 -7 7 -10 0
-17 -8 -17 -17z"/>
<path d="M3246 5345 c-9 -26 -7 -32 5 -12 6 10 9 21 6 23 -2 3 -7 -2 -11 -11z"/>
<path d="M3266 5332 c-4 -13 -16 -22 -26 -22 -13 0 -17 -5 -14 -14 3 -8 1 -16
-4 -20 -5 -3 -8 8 -7 24 1 17 -3 30 -10 30 -11 0 -13 -5 -17 -49 -2 -19 -28
-18 -28 2 0 6 -3 7 -6 4 -4 -4 -1 -13 5 -21 8 -10 9 -16 1 -21 -5 -3 -10 -1
-10 4 0 16 -17 13 -23 -3 -12 -30 88 4 136 47 22 20 27 30 19 43 -9 16 -10 15
-16 -4z"/>
<path d="M4170 5321 c-30 -11 -64 -21 -75 -23 -14 -2 -19 -10 -17 -26 3 -18
-1 -22 -15 -20 -34 6 -41 28 -17 52 14 15 13 16 -8 16 -19 0 -23 -6 -25 -35
-1 -19 2 -35 7 -35 5 0 2 -16 -6 -36 -8 -20 -10 -33 -5 -29 6 3 11 2 11 -4 0
-5 -8 -15 -17 -20 -10 -6 -13 -11 -8 -11 6 0 21 7 33 16 13 9 26 14 29 10 8
-8 -20 -33 -33 -29 -18 6 -44 -31 -34 -47 8 -13 10 -13 10 1 0 21 31 34 41 18
4 -7 5 -19 2 -26 -4 -10 0 -13 13 -11 18 3 34 19 59 59 26 41 52 76 78 104 15
17 30 41 34 55 3 14 11 28 17 32 20 14 -17 8 -74 -11z m30 -22 c0 -3 -10 -11
-22 -17 -18 -8 -19 -11 -5 -11 24 -1 21 -13 -13 -46 -16 -15 -27 -31 -25 -35
2 -4 -7 -17 -20 -28 -14 -12 -25 -18 -25 -13 0 6 10 17 22 25 16 11 18 16 7
16 -8 0 -19 -4 -25 -10 -6 -6 -15 -6 -24 0 -12 8 -13 11 -1 19 8 5 9 11 3 15
-6 4 -15 -1 -20 -10 -8 -15 -10 -15 -15 0 -4 10 -3 15 3 11 6 -3 10 -1 10 5 0
6 11 16 25 22 13 6 27 18 30 28 8 24 95 52 95 29z m-120 -154 c0 -8 -4 -15
-10 -15 -5 0 -7 7 -4 15 4 8 8 15 10 15 2 0 4 -7 4 -15z"/>
<path d="M3061 5244 c0 -11 3 -14 6 -6 3 7 2 16 -1 19 -3 4 -6 -2 -5 -13z"/>
<path d="M2986 5225 c-3 -8 -2 -23 2 -33 6 -15 12 -17 40 -10 36 10 42 23 12
25 -12 1 -18 -3 -14 -9 4 -6 -2 -6 -15 1 -11 7 -21 14 -21 17 0 3 5 2 10 -1 6
-3 10 -2 10 4 0 17 -18 22 -24 6z"/>
<path d="M2950 5149 c0 -5 5 -7 10 -4 6 3 10 8 10 11 0 2 -4 4 -10 4 -5 0 -10
-5 -10 -11z"/>
<path d="M2040 5120 c0 -5 5 -10 11 -10 5 0 7 5 4 10 -3 6 -8 10 -11 10 -2 0
-4 -4 -4 -10z"/>
<path d="M2916 5104 c-9 -9 -14 -19 -11 -22 3 -3 13 2 22 11 9 9 14 19 11 22
-3 3 -13 -2 -22 -11z"/>
<path d="M1952 5070 c0 -14 2 -19 5 -12 2 6 2 18 0 25 -3 6 -5 1 -5 -13z"/>
<path d="M2678 5023 c6 -65 10 -70 11 -15 0 28 -3 52 -7 52 -4 0 -6 -17 -4
-37z"/>
<path d="M3620 5050 c-9 -6 -10 -10 -3 -10 6 0 15 5 18 10 8 12 4 12 -15 0z"/>
<path d="M3795 5040 c-3 -5 -1 -10 4 -10 6 0 11 5 11 10 0 6 -2 10 -4 10 -3 0
-8 -4 -11 -10z"/>
<path d="M3585 5030 c-4 -6 -10 -8 -15 -5 -5 3 -12 1 -15 -5 -4 -6 -3 -9 2 -8
7 3 15 -7 12 -14 0 -2 -2 -14 -5 -28 -3 -24 -3 -24 8 -5 7 11 13 27 13 35 0 8
4 21 8 28 5 6 6 12 3 12 -3 0 -8 -5 -11 -10z"/>
<path d="M3975 5019 c-4 -6 -5 -12 -2 -15 2 -3 7 2 10 11 7 17 1 20 -8 4z"/>
<path d="M2052 4950 c0 -14 2 -19 5 -12 2 6 2 18 0 25 -3 6 -5 1 -5 -13z"/>
<path d="M3386 4955 c-11 -8 -16 -18 -13 -22 4 -3 16 3 27 15 23 25 15 29 -14
7z"/>
<path d="M3166 4933 c-6 -14 -5 -15 5 -6 7 7 10 15 7 18 -3 3 -9 -2 -12 -12z"/>
<path d="M3510 4948 c0 -2 -4 -17 -9 -35 -7 -25 -6 -33 6 -37 11 -4 13 -2 9 9
-3 10 1 15 12 15 13 0 14 2 3 9 -7 5 -11 13 -7 19 3 6 2 13 -4 17 -5 3 -10 5
-10 3z"/>
<path d="M3540 4930 c0 -5 5 -10 10 -10 6 0 10 5 10 10 0 6 -4 10 -10 10 -5 0
-10 -4 -10 -10z"/>
<path d="M1158 4783 c-22 -39 -48 -130 -48 -171 0 -31 2 -33 17 -21 15 12 16
12 10 -4 -9 -25 22 -36 38 -13 8 10 16 13 19 7 3 -5 0 -15 -7 -23 -16 -16 -11
-37 15 -59 26 -24 22 -34 -7 -15 -13 9 -32 16 -41 16 -9 0 -23 8 -31 18 -13
15 -14 13 -10 -19 6 -45 105 -198 151 -233 19 -14 69 -60 112 -102 87 -86 192
-155 239 -157 18 -1 31 -5 29 -8 -5 -9 36 -24 151 -54 92 -25 110 -26 230 -21
129 7 174 13 228 35 42 16 71 14 101 -10 39 -31 40 -19 4 26 -18 21 -33 46
-35 54 -1 9 -15 27 -31 41 -139 118 -145 122 -195 134 -25 6 -27 5 -21 -18 4
-19 1 -26 -16 -31 -21 -7 -21 -7 -3 -27 18 -20 18 -20 -24 0 -22 12 -44 27
-47 34 -5 10 -7 10 -12 1 -4 -10 -11 -10 -26 -2 -15 8 -22 8 -28 -1 -6 -9 -9
-9 -13 1 -4 10 -6 9 -6 -3 -1 -19 -21 -26 -21 -8 0 18 -18 11 -25 -10 -8 -26
-25 -26 -25 0 0 27 -28 37 -48 17 -14 -15 -14 -17 9 -26 13 -5 17 -10 9 -10
-9 -1 -21 4 -26 9 -6 6 -22 12 -35 13 -30 3 -121 50 -138 71 -8 9 -21 16 -30
16 -9 0 -21 4 -26 8 -6 5 -37 19 -70 32 -33 13 -76 33 -95 44 -35 19 -100 83
-100 97 0 8 112 -26 140 -43 31 -17 63 -28 68 -23 9 9 -14 49 -65 110 -27 33
-78 101 -111 152 -48 71 -66 91 -80 87 -11 -4 -13 -3 -5 3 15 11 5 56 -10 46
-6 -3 -7 -1 -3 5 7 11 -20 62 -33 62 -4 0 -14 -12 -23 -27z m613 -686 c13 4
19 0 19 -11 0 -9 -8 -16 -17 -16 -15 0 -16 -2 -3 -10 11 -7 12 -12 3 -21 -9
-9 -13 -6 -19 15 -3 14 -10 26 -14 26 -5 0 -5 10 -2 23 5 16 7 18 10 6 2 -11
10 -15 23 -12z m149 13 c0 -5 -5 -10 -11 -10 -5 0 -7 5 -4 10 3 6 8 10 11 10
2 0 4 -4 4 -10z m-5 -37 c-2 -10 -4 -20 -4 -22 -1 -2 -7 2 -14 8 -16 13 -28 5
-20 -15 3 -8 1 -14 -5 -14 -5 0 -12 9 -15 20 -4 16 2 22 26 29 18 5 33 10 34
10 1 1 0 -7 -2 -16z m-97 -37 c2 -18 0 -26 -7 -22 -5 4 -7 14 -4 23 4 11 3 14
-5 9 -22 -13 -12 -34 24 -55 36 -22 52 -22 39 -2 -3 6 -12 11 -18 11 -7 0 -13
11 -13 25 -2 21 0 22 12 10 8 -8 13 -17 12 -19 -4 -6 34 -35 46 -36 4 0 6 7 2
15 -3 8 -2 15 3 15 14 0 23 -52 11 -64 -8 -8 -9 -7 -5 6 5 13 2 15 -14 11 -12
-3 -24 -10 -28 -16 -3 -5 -14 0 -25 14 -14 16 -18 18 -14 7 7 -22 -10 -23 -30
-3 -14 13 -13 15 3 16 15 0 14 2 -4 11 -24 12 -26 19 -17 56 9 30 28 23 32
-12z m-74 -41 c3 -8 1 -15 -4 -15 -6 0 -10 7 -10 15 0 8 2 15 4 15 2 0 6 -7
10 -15z m26 -17 c0 -12 -3 -18 -7 -14 -11 10 -12 36 -2 36 5 0 9 -10 9 -22z"/>
<path d="M3066 4783 c-6 -14 -5 -15 5 -6 7 7 10 15 7 18 -3 3 -9 -2 -12 -12z"/>
<path d="M2015 4530 c-8 -12 12 -40 28 -40 8 0 8 3 0 11 -6 6 -9 18 -6 25 6
16 -13 19 -22 4z"/>
<path d="M2884 4478 l-19 -23 23 19 c12 11 22 21 22 23 0 8 -8 2 -26 -19z"/>
<path d="M2799 4403 c-13 -16 -12 -17 4 -4 9 7 17 15 17 17 0 8 -8 3 -21 -13z"/>
<path d="M1850 4269 c0 -5 5 -7 10 -4 6 3 10 8 10 11 0 2 -4 4 -10 4 -5 0 -10
-5 -10 -11z"/>
<path d="M1898 4263 c7 -3 16 -2 19 1 4 3 -2 6 -13 5 -11 0 -14 -3 -6 -6z"/>
<path d="M3214 4114 c-3 -10 -10 -29 -15 -41 -5 -13 -6 -23 -3 -23 8 0 36 72
30 78 -3 2 -8 -4 -12 -14z"/>
<path d="M3135 4039 c-4 -6 -5 -12 -2 -15 2 -3 7 2 10 11 7 17 1 20 -8 4z"/>
<path d="M3899 3804 c-41 -21 -55 -42 -39 -57 10 -10 12 -9 7 5 -4 12 1 21 15
29 18 10 20 9 14 -7 -7 -17 -6 -17 12 1 11 11 18 23 16 27 -2 3 2 9 8 11 7 3
9 5 3 5 -5 0 -22 -6 -36 -14z"/>
<path d="M1533 3735 c-3 -9 -2 -53 2 -98 8 -97 62 -238 119 -313 20 -26 36
-44 36 -40 0 4 7 1 15 -8 8 -8 15 -19 15 -23 0 -11 41 -51 92 -90 20 -15 63
-49 96 -75 33 -26 62 -45 64 -43 3 3 5 -1 5 -9 0 -21 66 -95 80 -91 7 2 10 -2
7 -8 -2 -7 9 -26 26 -42 16 -16 30 -25 30 -21 0 5 7 3 15 -4 8 -7 15 -18 15
-24 0 -6 -4 -4 -10 4 -5 8 -11 12 -14 10 -2 -3 13 -24 35 -47 21 -23 39 -40
39 -37 0 3 11 -8 25 -24 17 -20 52 -39 114 -61 122 -44 129 -45 276 -44 100 0
140 4 175 18 25 9 72 22 105 27 33 5 75 14 93 19 27 9 38 7 65 -10 18 -11 78
-44 135 -74 90 -47 104 -52 115 -39 9 13 9 14 0 8 -7 -4 -13 -2 -13 3 0 6 -4
11 -9 11 -6 0 -22 11 -37 25 -15 14 -34 23 -41 21 -7 -3 -13 -1 -13 4 0 5 -13
13 -29 17 -48 13 -94 53 -206 178 -15 17 -24 24 -21 18 4 -7 3 -13 -2 -13 -5
0 -12 14 -16 31 -3 17 -15 42 -26 57 l-21 26 7 -42 c5 -35 4 -42 -10 -42 -10
0 -16 -8 -16 -23 0 -13 -5 -28 -12 -35 -9 -9 -4 -14 20 -23 18 -6 32 -15 32
-19 0 -12 -64 -2 -68 10 -2 6 -8 7 -13 4 -6 -3 -24 1 -42 9 -18 8 -63 27 -101
43 -38 15 -64 30 -57 32 19 6 12 18 -11 19 -12 1 -32 14 -45 29 -13 15 -23 23
-23 18 0 -6 -9 -10 -20 -11 -11 -1 -20 3 -20 8 0 6 -4 8 -9 4 -6 -3 -14 2 -19
11 -5 9 -18 17 -30 18 -30 2 -133 78 -127 95 5 11 3 12 -10 1 -13 -10 -15 -9
-15 9 0 12 -4 19 -10 16 -5 -3 -10 1 -10 10 0 13 -4 14 -21 5 -17 -10 -21 -8
-26 10 -3 12 -11 19 -19 16 -15 -6 -14 15 1 26 6 4 2 8 -7 8 -10 0 -18 5 -18
11 0 5 -5 7 -11 4 -6 -4 -8 -13 -5 -21 8 -20 -1 -17 -25 7 -18 18 -20 26 -11
40 8 13 8 20 -3 29 -11 9 -12 15 -2 25 7 7 17 10 22 7 6 -3 4 2 -4 11 -11 13
-11 17 -1 17 8 0 11 2 8 5 -12 12 -37 -7 -30 -23 5 -15 4 -15 -11 -3 -9 7 -15
17 -12 21 3 5 1 11 -5 15 -5 3 -10 -3 -10 -14 0 -11 5 -23 11 -27 8 -5 8 -9
-1 -14 -9 -6 -7 -11 8 -19 13 -7 19 -17 16 -26 -5 -11 -11 -12 -26 -4 -35 19
-29 3 9 -24 21 -15 33 -27 26 -27 -6 0 -37 19 -69 43 -33 23 -70 50 -84 59
-35 23 -107 94 -121 119 -8 15 -8 19 0 15 6 -4 11 -3 11 2 0 14 -28 35 -38 28
-5 -3 -9 2 -9 10 0 8 5 12 11 9 6 -3 19 -8 28 -11 22 -8 32 -35 16 -45 -7 -4
-9 -11 -5 -15 4 -4 15 0 25 9 10 10 24 17 30 17 17 0 15 17 -2 23 -8 3 -17 1
-19 -6 -6 -16 -13 -8 -21 23 -3 14 -3 19 0 13 8 -18 34 -16 34 2 0 8 -6 15
-14 15 -8 0 -17 7 -20 16 -9 23 -8 24 14 24 11 0 20 5 20 11 0 5 11 -2 24 -18
14 -16 35 -28 52 -29 16 -1 30 -3 32 -3 1 -1 -3 -11 -9 -23 -10 -20 -10 -21 2
-11 11 9 18 8 31 -1 10 -7 15 -16 11 -19 -3 -4 3 -10 13 -14 10 -3 22 -11 26
-17 4 -6 13 -5 24 5 11 9 15 9 10 2 -4 -7 -3 -13 2 -13 6 0 8 -10 6 -22 l-5
-23 10 23 c6 12 13 22 16 22 4 0 4 -4 1 -8 -6 -10 3 -22 28 -42 12 -9 17 -10
12 -3 -5 9 -2 11 8 7 9 -3 14 -10 11 -14 -3 -5 3 -7 12 -5 24 3 43 -13 43 -37
0 -15 4 -17 18 -9 16 9 47 0 62 -18 3 -3 17 -12 33 -20 15 -8 27 -20 27 -27 0
-8 6 -11 15 -8 9 4 15 0 15 -7 0 -11 2 -11 8 -2 11 18 76 -4 107 -35 14 -14
25 -21 25 -16 0 4 11 -6 23 -24 13 -17 36 -41 51 -53 23 -18 30 -20 37 -8 5 8
9 10 10 4 0 -5 4 -1 9 10 6 15 9 16 9 4 1 -9 8 -16 16 -16 8 0 12 4 9 9 -3 4
2 8 10 8 9 0 16 -6 17 -12 0 -7 4 -4 9 7 7 17 9 17 9 3 1 -10 8 -18 16 -18 8
0 15 -6 15 -14 0 -8 7 -16 15 -20 8 -3 15 -15 15 -26 0 -11 7 -20 15 -20 26 0
17 18 -46 84 -65 70 -143 116 -195 116 -49 0 -161 37 -242 81 -41 21 -78 36
-83 33 -5 -3 -8 -1 -7 5 4 14 -172 132 -185 124 -6 -3 -7 -1 -3 5 4 7 -13 22
-45 39 -28 16 -64 38 -79 51 -15 12 -33 22 -38 22 -6 0 -23 11 -39 24 -15 13
-39 27 -52 31 -13 4 -40 22 -60 41 -45 40 -186 114 -219 114 -12 0 -25 -7 -29
-15z m452 -516 c30 -11 55 -24 55 -29 0 -7 -117 34 -129 46 -10 10 23 2 74
-17z m-133 -33 c10 -5 14 -14 11 -24 -5 -11 -2 -14 10 -9 11 4 17 1 17 -9 0
-19 -25 -6 -59 29 -22 24 -15 28 21 13z m138 -26 c18 -12 2 -12 -25 0 -13 6
-15 9 -5 9 8 0 22 -4 30 -9z m60 -20 c0 -5 -4 -10 -9 -10 -6 0 -13 5 -16 10
-3 6 1 10 9 10 9 0 16 -4 16 -10z m35 -18 c-3 -3 -11 0 -18 7 -9 10 -8 11 6 5
10 -3 15 -9 12 -12z m-118 -20 c-10 -13 -8 -14 10 -8 12 4 24 2 28 -3 4 -7 -1
-8 -11 -4 -12 4 -15 3 -10 -5 5 -9 1 -9 -19 0 -15 7 -22 14 -16 16 6 2 9 7 7
11 -3 4 1 8 9 8 12 0 12 -3 2 -15z m73 -1 c0 -5 13 -11 29 -14 16 -3 35 -12
42 -20 8 -7 21 -12 29 -9 9 3 8 -1 -4 -10 -10 -8 -16 -20 -12 -26 4 -7 -5 -7
-31 0 -41 11 -63 25 -25 15 12 -3 22 -1 22 4 0 5 -11 11 -25 15 -14 3 -22 10
-19 15 3 5 1 9 -4 9 -6 0 -12 7 -16 15 -3 8 -1 15 4 15 6 0 10 -4 10 -9z m-20
-41 c0 -5 -2 -10 -4 -10 -3 0 -8 5 -11 10 -3 6 -1 10 4 10 6 0 11 -4 11 -10z
m10 -36 c0 -2 -9 -4 -21 -4 -11 0 -18 4 -14 10 5 8 35 3 35 -6z m133 -17 c-7
-11 -23 2 -23 19 0 12 2 12 14 2 8 -7 12 -16 9 -21z m35 19 c-7 -8 -15 -12
-17 -11 -5 6 10 25 20 25 5 0 4 -6 -3 -14z m72 -6 c-19 -13 -30 -13 -30 0 0 6
10 10 23 10 18 0 19 -2 7 -10z m-207 -26 c-3 -8 -13 -14 -22 -13 -9 0 -11 3
-4 5 7 3 9 12 6 20 -4 10 0 12 10 8 9 -3 13 -12 10 -20z m247 15 c0 -5 4 -8 9
-5 4 3 17 -1 27 -9 18 -14 17 -15 -11 -11 -16 2 -33 5 -37 5 -12 1 -9 31 2 31
6 0 10 -5 10 -11z m-215 -29 c3 -5 -1 -10 -10 -10 -9 0 -13 5 -10 10 3 6 8 10
10 10 2 0 7 -4 10 -10z m45 -9 c0 -4 -6 -8 -13 -8 -8 0 -14 6 -14 13 0 7 6 10
14 7 7 -3 13 -8 13 -12z m213 -20 c26 -11 47 -26 47 -33 0 -16 -195 -7 -228
11 -28 15 -28 21 1 13 21 -5 21 -5 5 12 -10 10 -18 19 -18 21 0 12 154 -7 193
-24z m-227 -29 c1 -7 0 -8 -3 -2 -2 5 -9 10 -14 10 -6 0 -7 -4 -4 -10 3 -5 2
-10 -3 -10 -6 0 -12 6 -15 14 -4 9 2 13 16 12 11 -1 22 -7 23 -14z m41 -22 c5
-20 23 -28 23 -11 0 5 43 7 96 5 88 -3 98 -6 120 -29 l24 -26 -25 -9 c-26 -10
-85 5 -85 21 0 5 -4 9 -10 9 -5 0 -9 -6 -7 -12 2 -15 -51 -12 -70 4 -7 5 -17
7 -24 3 -8 -5 -9 -1 -4 16 7 21 6 22 -7 11 -18 -15 -51 -5 -44 14 3 7 0 15 -7
18 -8 3 -8 5 1 5 8 1 16 -8 19 -19z m803 -75 c11 -13 10 -14 -5 -9 -13 5 -16
4 -11 -4 4 -7 2 -12 -3 -12 -13 0 -13 3 -5 24 8 20 9 20 24 1z m-708 -20 c0
-5 -5 -11 -10 -13 -5 -1 -9 4 -9 13 0 9 4 14 9 13 5 -2 10 -8 10 -13z m57 -7
c8 -7 11 -8 8 -2 -4 7 15 10 56 10 36 -1 61 -5 59 -11 -2 -6 -12 -9 -23 -7
-10 2 -22 -4 -25 -12 -6 -16 -41 -20 -81 -10 -13 4 -20 10 -17 15 3 5 0 9 -5
9 -6 0 -11 -5 -11 -12 0 -6 -2 -9 -5 -6 -9 8 6 38 19 38 7 0 18 -6 25 -12z
m186 -8 c-3 -5 -12 -10 -18 -10 -7 0 -6 4 3 10 19 12 23 12 15 0z"/>
<path d="M2350 2779 c0 -5 5 -7 10 -4 6 3 10 8 10 11 0 2 -4 4 -10 4 -5 0 -10
-5 -10 -11z"/>
<path d="M3820 3741 c0 -6 4 -13 10 -16 6 -3 7 1 4 9 -7 18 -14 21 -14 7z"/>
<path d="M4940 3629 c0 -5 -13 -15 -30 -20 -16 -6 -27 -15 -24 -20 3 -5 0 -9
-5 -9 -6 0 -11 5 -11 10 0 6 -5 10 -10 10 -7 0 -7 -6 0 -19 12 -23 13 -42 1
-23 -6 10 -17 3 -46 -25 -21 -21 -35 -30 -32 -20 4 9 2 17 -3 17 -5 0 -14 -8
-19 -17 -10 -17 -10 -17 -11 0 0 11 -5 16 -12 13 -7 -3 -21 -9 -30 -12 -10 -4
-18 -15 -18 -26 0 -17 -2 -18 -15 -5 -13 13 -19 13 -49 -1 -19 -9 -32 -20 -29
-25 3 -5 -4 -4 -16 2 -17 10 -22 9 -27 -4 -3 -8 -10 -12 -15 -9 -5 3 -6 -2 -3
-10 3 -9 1 -16 -5 -16 -10 0 -15 14 -12 34 1 5 -5 3 -15 -4 -10 -9 -12 -16 -5
-18 9 -3 9 -7 0 -18 -15 -18 -33 -18 -26 0 4 10 1 13 -9 9 -10 -4 -12 -9 -4
-18 7 -8 7 -21 1 -38 -17 -44 11 -38 60 14 47 50 69 61 69 34 0 -8 5 -15 10
-15 6 0 10 6 10 14 0 17 20 25 79 32 25 3 49 8 53 10 4 3 8 1 8 -5 0 -6 6 -8
13 -5 7 2 22 -5 32 -16 16 -18 17 -20 2 -14 -13 5 -16 2 -11 -10 3 -9 1 -16
-5 -16 -6 0 -11 -6 -11 -14 0 -16 -39 -66 -40 -50 0 5 7 19 15 30 18 24 19 34
0 34 -10 0 -12 -6 -8 -17 6 -16 5 -17 -13 -3 -18 14 -18 14 -4 -4 11 -15 12
-20 3 -23 -15 -5 -17 -33 -3 -33 6 0 10 -5 10 -12 0 -6 -3 -8 -6 -5 -4 3 -15
2 -25 -4 -16 -8 -19 -6 -19 13 l-1 23 -12 -23 c-7 -12 -16 -19 -21 -15 -4 4
-4 0 -1 -9 4 -10 -2 -25 -14 -37 -13 -13 -18 -27 -14 -38 6 -16 5 -17 -12 -3
-17 14 -17 14 -5 -6 13 -22 37 -28 37 -10 0 6 1 20 2 31 2 18 3 18 16 -5 8
-14 14 -32 14 -40 0 -11 -2 -11 -6 -2 -3 9 -10 7 -24 -9 -10 -12 -19 -17 -19
-10 0 7 -4 10 -9 6 -5 -3 -12 -1 -16 5 -3 5 -11 10 -17 10 -7 0 -7 -4 1 -14 9
-10 8 -16 -4 -26 -13 -11 -14 -10 -10 3 6 14 3 13 -29 -1 -20 -9 -36 -20 -36
-25 0 -4 5 -5 10 -2 6 3 10 2 10 -4 0 -17 -19 -22 -41 -10 -19 10 -21 9 -16
-5 4 -10 3 -15 -3 -11 -12 7 -46 -10 -42 -22 1 -4 -1 -8 -5 -8 -16 -1 -40 -21
-46 -38 -4 -10 -13 -17 -19 -15 -7 3 -19 -1 -26 -9 -7 -7 -18 -13 -23 -13 -17
0 -9 21 19 45 15 13 22 25 15 25 -6 0 -15 -4 -18 -10 -3 -5 -11 -10 -17 -10
-6 0 -5 6 3 16 20 24 38 83 28 90 -5 3 -9 2 -9 -3 0 -4 -14 -8 -30 -9 -23 -1
-28 2 -20 12 15 17 -6 29 -25 14 -10 -8 -19 -9 -32 -1 -17 10 -16 10 4 11 12
0 25 5 28 10 8 13 3 13 -32 -1 -26 -10 -27 -12 -10 -23 14 -11 15 -15 3 -25
-7 -6 -21 -8 -31 -5 -15 6 -17 3 -11 -19 6 -24 -3 -36 -67 -102 -40 -41 -81
-75 -91 -75 -9 0 -15 -4 -11 -9 3 -5 -8 -30 -25 -55 -17 -24 -40 -66 -51 -92
-14 -31 -24 -42 -29 -34 -5 8 -16 -6 -33 -41 -13 -30 -48 -80 -77 -112 -39
-43 -50 -61 -42 -69 8 -8 17 -4 33 16 25 32 76 59 145 76 43 11 58 11 84 0 17
-7 61 -13 98 -13 54 0 79 6 122 28 30 15 81 40 112 56 133 67 255 170 242 204
-3 8 0 22 6 32 10 16 11 16 6 1 -7 -22 3 -23 32 -2 12 8 20 20 17 25 -4 5 -1
9 4 9 6 0 11 5 11 11 0 5 -4 8 -9 5 -14 -9 0 36 16 56 8 9 13 21 10 25 -3 5
-2 15 4 23 7 12 9 12 9 -3 0 -10 5 -15 11 -12 6 4 8 13 5 21 -3 8 1 14 9 14 8
0 15 6 15 14 0 8 7 17 16 20 9 3 12 11 8 18 -5 8 -2 9 9 5 11 -4 14 -2 11 8
-3 8 1 12 13 12 12 -2 19 6 21 22 3 19 6 21 13 10 7 -11 9 -11 9 -1 0 7 5 10
10 7 6 -3 10 -1 10 6 0 7 2 10 5 7 20 -19 -134 -198 -171 -198 -9 0 -12 -5 -8
-12 4 -7 3 -8 -4 -4 -7 4 -12 1 -12 -8 0 -9 4 -16 8 -16 17 0 190 177 225 230
19 30 50 75 67 100 79 112 161 331 117 315 -8 -4 -18 -1 -23 6 -5 8 -3 10 7 5
8 -4 5 0 -5 8 -22 18 -106 22 -106 5z m57 -89 c-1 -22 -17 -28 -17 -7 0 12 9
27 16 27 2 0 2 -9 1 -20z m-147 -10 c0 -5 -2 -10 -4 -10 -3 0 -8 5 -11 10 -3
6 -1 10 4 10 6 0 11 -4 11 -10z m68 -4 c-7 -8 -17 -12 -22 -9 -4 3 -2 9 5 14
22 13 31 11 17 -5z m42 -26 c-8 -5 -17 -7 -19 -4 -3 3 1 9 9 14 8 5 17 7 19 4
3 -3 -1 -9 -9 -14z m24 -25 c3 -8 1 -15 -4 -15 -6 0 -10 7 -10 15 0 8 2 15 4
15 2 0 6 -7 10 -15z m-174 -31 c0 -3 -7 -1 -15 6 -8 7 -15 17 -15 22 0 5 7 3
15 -6 8 -8 15 -18 15 -22z m147 -11 c-3 -10 -5 -4 -5 12 0 17 2 24 5 18 2 -7
2 -21 0 -30z m-32 17 c-3 -5 -10 -10 -16 -10 -5 0 -9 5 -9 10 0 6 7 10 16 10
8 0 12 -4 9 -10z m-22 -23 c16 -6 16 -8 -5 -29 -13 -13 -27 -22 -31 -20 -5 1
-5 -3 -1 -9 4 -7 0 -9 -14 -5 -11 4 -23 2 -27 -3 -3 -7 0 -8 9 -5 9 4 16 1 16
-6 0 -10 3 -10 15 0 9 7 19 9 23 5 4 -4 2 -10 -5 -12 -21 -8 -64 -45 -59 -51
3 -3 15 3 26 13 15 14 20 15 20 4 0 -8 8 -4 20 11 10 14 22 21 27 17 4 -5 1
-12 -6 -16 -7 -5 -10 -14 -7 -20 4 -6 0 -11 -11 -11 -17 -1 -17 -2 1 -15 18
-14 18 -15 2 -15 -10 0 -20 10 -23 21 -6 20 -7 20 -18 6 -16 -22 -89 -31 -104
-14 -8 11 -6 13 12 13 18 -1 21 4 19 23 -3 21 0 23 22 19 22 -5 24 -3 15 15
-11 19 1 36 24 37 5 0 6 10 3 23 -3 12 -3 16 0 10 10 -21 33 -15 29 7 -2 11
-1 19 3 17 4 -2 15 -7 25 -10z m-133 -119 c0 -16 -3 -19 -11 -11 -6 6 -8 16
-5 22 11 17 16 13 16 -11z m-2 -59 c1 -1 6 -2 11 -3 5 0 12 -4 15 -8 3 -5 3
-6 0 -3 -4 2 -15 -6 -26 -18 l-19 -22 6 23 c8 29 2 28 -35 -9 -17 -17 -33 -29
-37 -26 -3 3 8 17 23 31 24 22 27 27 14 35 -11 8 -7 9 15 6 17 -2 31 -4 33 -6z
m-161 -130 c2 -16 -1 -19 -9 -11 -5 5 -7 15 -4 21 10 15 12 14 13 -10z m-349
-54 c-3 -3 -9 2 -12 12 -6 14 -5 15 5 6 7 -7 10 -15 7 -18z m322 15 c0 -5 -7
-7 -15 -4 -8 4 -15 8 -15 10 0 2 7 4 15 4 8 0 15 -4 15 -10z m57 -20 c-1 -10
-5 -16 -9 -14 -4 3 -10 -7 -14 -21 -3 -13 -10 -23 -14 -20 -5 3 -6 15 -2 28 5
20 4 21 -14 7 -18 -14 -18 -14 -5 3 7 9 20 17 27 17 8 0 14 7 14 16 0 8 4 13
9 9 6 -3 9 -14 8 -25z m-382 -30 c12 0 34 28 28 34 -4 3 -1 6 5 6 17 0 15 -16
-4 -35 -10 -9 -25 -14 -36 -12 -10 3 -15 1 -12 -5 3 -5 18 -7 32 -3 22 5 24 4
13 -9 -11 -13 -11 -19 0 -32 10 -13 10 -17 -2 -25 -8 -5 -10 -9 -6 -9 5 0 22
9 38 21 16 11 29 15 29 9 0 -6 7 -4 17 5 9 10 26 15 39 12 15 -3 30 4 43 17
20 21 20 22 1 22 -11 0 -20 -6 -20 -13 0 -7 -4 -13 -10 -13 -17 0 -11 25 9 37
11 7 29 10 40 8 12 -2 21 1 21 8 0 7 7 3 15 -7 14 -19 21 -11 15 19 -1 6 3 6
10 -1 14 -14 3 -42 -21 -49 -10 -4 -19 -9 -19 -13 0 -4 -3 -18 -7 -31 -5 -19
-3 -22 8 -16 7 5 32 12 55 15 39 6 41 5 31 -11 -8 -13 -13 -15 -19 -6 -5 8 -8
7 -8 -5 0 -14 -4 -16 -25 -8 -24 9 -55 -8 -55 -31 0 -16 18 -10 24 8 6 14 9
15 16 4 4 -8 6 -21 3 -29 -5 -11 -1 -13 17 -7 15 5 20 4 16 -4 -4 -6 -2 -11 5
-11 7 0 4 -7 -7 -16 -10 -8 -13 -13 -6 -9 6 3 12 1 12 -4 0 -6 -8 -11 -17 -12
-16 0 -16 -1 1 -8 19 -7 19 -8 0 -16 -23 -9 -54 -14 -54 -7 0 3 7 10 16 17 14
10 15 15 5 31 -10 16 -12 16 -7 2 6 -19 -9 -25 -19 -8 -10 16 -35 12 -35 -6 0
-9 -5 -12 -12 -8 -7 5 -8 3 -3 -5 5 -9 10 -10 18 -2 15 15 24 14 24 -4 0 -8
-4 -15 -9 -15 -17 0 -7 -18 15 -25 17 -5 18 -8 7 -12 -8 -3 -19 -12 -23 -19
-11 -19 -31 -18 -23 1 3 9 0 15 -10 15 -8 0 -13 -4 -9 -9 3 -5 0 -13 -6 -17
-8 -5 -9 -3 -4 6 5 8 3 11 -5 8 -21 -7 -23 -26 -3 -30 16 -3 15 -6 -6 -17 -14
-8 -21 -8 -17 -2 5 7 1 9 -8 5 -9 -3 -14 -10 -11 -14 3 -5 -5 -6 -17 -3 -17 3
-19 2 -10 -5 11 -7 10 -10 -3 -16 -9 -3 -22 -3 -27 1 -6 3 -8 1 -4 -5 8 -14
-10 -25 -46 -27 -22 -1 -26 1 -17 12 16 19 -8 48 -27 32 -22 -18 -38 0 -19 21
9 10 14 24 10 29 -3 6 1 11 10 11 11 0 15 5 11 15 -3 8 -1 15 4 15 5 0 7 6 4
14 -3 8 0 17 5 21 6 3 9 11 6 16 -4 5 -2 9 4 9 11 0 9 19 -3 39 -7 11 -5 13 6
8 11 -4 18 1 21 14 3 11 2 19 -1 17 -4 -2 -25 -12 -47 -21 -22 -9 -57 -26 -78
-38 -21 -11 -41 -18 -44 -16 -2 3 5 11 17 17 18 10 20 14 9 22 -10 7 -8 8 8 3
17 -5 22 -3 17 8 -3 9 -13 13 -25 10 -10 -3 -19 0 -19 6 0 6 -4 11 -10 11 -5
0 -9 -3 -7 -7 1 -5 -2 -9 -7 -11 -6 -1 -11 5 -12 14 -2 10 20 38 49 66 52 48
89 68 49 25 -17 -17 -19 -26 -10 -35 8 -8 8 -15 0 -25 -12 -14 -5 -57 10 -57
15 0 86 39 94 52 5 8 2 9 -9 5 -18 -7 -24 8 -7 18 6 3 10 12 10 18 0 7 -11 -1
-24 -16 -24 -28 -25 -28 -23 -5 0 12 6 27 12 31 5 5 -1 5 -15 1 -24 -6 -24 -6
-7 13 9 11 17 25 17 32 0 7 4 10 9 7 5 -3 12 4 15 17 l7 22 9 -22 c5 -13 12
-23 15 -23z"/>
<path d="M4386 2964 c-4 -10 -1 -14 6 -12 15 5 23 28 10 28 -5 0 -13 -7 -16
-16z"/>
<path d="M4437 2913 c-9 -9 -9 -41 1 -46 4 -3 8 8 9 24 2 30 1 33 -10 22z"/>
<path d="M4326 2862 c-3 -5 1 -9 9 -9 8 0 15 4 15 9 0 4 -4 8 -9 8 -6 0 -12
-4 -15 -8z"/>
<path d="M4370 2839 c0 -5 5 -7 10 -4 6 3 10 8 10 11 0 2 -4 4 -10 4 -5 0 -10
-5 -10 -11z"/>
<path d="M4285 2709 c-11 -17 1 -21 15 -4 8 9 8 15 2 15 -6 0 -14 -5 -17 -11z"/>
<path d="M4908 3623 c7 -3 16 -2 19 1 4 3 -2 6 -13 5 -11 0 -14 -3 -6 -6z"/>
<path d="M4665 3530 c-3 -6 1 -7 9 -4 18 7 21 14 7 14 -6 0 -13 -4 -16 -10z"/>
<path d="M3793 3513 c-28 -6 -45 -26 -37 -47 6 -15 8 -14 24 4 9 11 22 20 29
20 6 0 11 7 11 15 0 8 -1 14 -2 14 -2 -1 -13 -4 -25 -6z"/>
<path d="M4567 3489 c-22 -11 -36 -23 -33 -26 3 -3 12 0 21 7 8 7 15 9 15 4 0
-5 4 -4 8 2 4 6 16 16 27 22 35 20 2 12 -38 -9z"/>
<path d="M1940 3465 c-7 -9 -8 -15 -2 -15 5 0 12 7 16 15 3 8 4 15 2 15 -2 0
-9 -7 -16 -15z"/>
<path d="M1900 3391 c0 -6 5 -11 11 -11 5 0 7 -5 4 -10 -4 -7 -13 -7 -25 0
-15 8 -18 7 -14 -2 6 -15 107 -98 119 -98 4 0 14 -8 21 -17 13 -19 67 -26 61
-8 -2 5 -14 9 -25 9 -12 -1 -22 3 -22 7 0 8 15 13 33 10 9 -1 8 8 -3 34 -5 11
-9 14 -9 8 -1 -7 -1 -16 -2 -20 -1 -16 -28 -23 -53 -13 -19 7 -24 15 -21 31 3
13 -2 27 -13 35 -23 18 -37 17 -22 -1 15 -18 -1 -20 -18 -3 -8 8 -8 15 -2 23
7 9 5 16 -5 25 -10 9 -15 9 -15 1z m67 -76 c0 -8 -4 -12 -9 -9 -5 3 -6 10 -3
15 9 13 12 11 12 -6z"/>
<path d="M4390 3343 c1 -32 45 -41 47 -11 2 19 0 20 -8 8 -8 -11 -12 -12 -16
-2 -5 13 -23 17 -23 5z"/>
<path d="M4425 3287 c-10 -8 -15 -19 -11 -25 10 -17 -9 -15 -24 3 -14 17 -56
13 -52 -4 3 -13 -42 -83 -49 -76 -3 2 -6 -5 -6 -17 -1 -13 13 1 40 40 43 63
57 74 57 45 0 -9 3 -13 7 -10 3 4 12 2 19 -4 9 -7 14 -4 20 13 4 13 14 28 23
35 22 17 -1 16 -24 0z"/>
<path d="M2150 3235 c0 -8 4 -15 10 -15 5 0 7 7 4 15 -4 8 -8 15 -10 15 -2 0
-4 -7 -4 -15z"/>
<path d="M4269 3223 c-13 -16 -12 -17 4 -4 9 7 17 15 17 17 0 8 -8 3 -21 -13z"/>
<path d="M4376 3217 c3 -10 9 -15 12 -12 3 3 0 11 -7 18 -10 9 -11 8 -5 -6z"/>
<path d="M2130 3205 c7 -9 15 -13 17 -11 7 7 -7 26 -19 26 -6 0 -6 -6 2 -15z"/>
<path d="M2185 3200 c3 -5 8 -10 11 -10 2 0 4 5 4 10 0 6 -5 10 -11 10 -5 0
-7 -4 -4 -10z"/>
<path d="M4250 3190 c-9 -6 -10 -10 -3 -10 6 0 15 5 18 10 8 12 4 12 -15 0z"/>
<path d="M3400 3080 c-13 -8 -12 -10 3 -10 9 0 17 5 17 10 0 12 -1 12 -20 0z"/>
<path d="M3430 3059 c0 -8 9 -25 20 -39 16 -21 20 -22 20 -7 0 10 -9 27 -20
39 -14 15 -20 17 -20 7z"/>
<path d="M4059 2983 c-13 -16 -12 -17 4 -4 16 13 21 21 13 21 -2 0 -10 -8 -17
-17z"/>
<path d="M4018 2938 c-10 -10 -14 -18 -9 -18 10 0 36 29 30 34 -2 1 -12 -6
-21 -16z"/>
<path d="M2820 2891 c0 -6 5 -13 10 -16 6 -3 10 1 10 9 0 9 -4 16 -10 16 -5 0
-10 -4 -10 -9z"/>
<path d="M1510 2760 c-13 -8 -12 -10 2 -10 9 0 23 -3 32 -6 10 -4 16 -1 16 7
0 7 -3 9 -7 6 -3 -4 -11 -3 -17 3 -7 5 -17 5 -26 0z"/>
<path d="M1573 2735 c-7 -8 -13 -23 -13 -34 0 -11 -5 -23 -10 -26 -6 -4 -8
-11 -5 -16 4 -5 2 -9 -3 -9 -14 0 -35 47 -29 64 3 8 2 18 -3 21 -13 8 -13 -31
0 -75 6 -19 20 -69 31 -110 25 -91 43 -123 68 -115 18 5 170 -60 182 -78 4 -6
14 -7 23 -4 12 5 20 0 26 -16 8 -19 9 -20 9 -3 1 18 16 14 16 -3 0 -4 8 -15
18 -25 9 -10 17 -14 17 -10 0 3 7 1 16 -7 13 -10 17 -10 24 1 6 9 12 5 24 -16
10 -20 15 -23 16 -12 0 12 5 15 17 11 10 -4 14 -2 9 5 -3 6 -1 14 5 18 8 4 9
3 5 -4 -4 -7 -1 -12 8 -12 9 0 16 -6 16 -14 0 -22 15 -27 44 -16 18 7 26 6 26
-1 0 -8 4 -8 14 0 11 9 17 8 28 -3 24 -23 68 -25 68 -2 0 9 -18 16 -55 21 -31
3 -67 13 -82 20 -14 7 -32 11 -39 8 -8 -3 -14 0 -14 6 0 6 6 11 13 11 8 0 7 4
-3 11 -26 18 150 3 213 -19 31 -10 60 -16 62 -11 6 9 -77 41 -166 64 -87 23
-208 90 -307 171 -28 23 -35 24 -50 13 -15 -13 -16 -12 -3 4 13 16 10 22 -20
55 -19 20 -37 38 -41 40 -5 2 -8 9 -8 15 0 11 -18 24 -83 63 -10 7 -24 17 -30
23 -14 14 -19 13 -34 -4z m53 -37 c5 -8 2 -9 -11 -4 -15 5 -16 4 -6 -8 10 -12
9 -13 -8 -9 -12 3 -21 12 -21 19 0 17 36 19 46 2z m-41 -48 c3 -6 -1 -7 -9 -4
-18 7 -21 14 -7 14 6 0 13 -4 16 -10z m355 -314 c0 -3 -4 -8 -10 -11 -5 -3
-10 -1 -10 4 0 6 5 11 10 11 6 0 10 -2 10 -4z"/>
<path d="M1530 2700 c0 -11 4 -20 9 -20 6 0 9 9 8 20 -1 11 -5 20 -9 20 -4 0
-8 -9 -8 -20z"/>
<path d="M3425 2589 c-4 -6 -5 -12 -2 -15 2 -3 7 2 10 11 7 17 1 20 -8 4z"/>
<path d="M3335 2569 c-6 -8 -4 -10 5 -4 8 5 11 2 7 -11 -3 -14 12 -34 58 -74
35 -30 95 -93 133 -140 38 -47 84 -101 101 -120 18 -19 40 -51 51 -70 10 -19
37 -55 60 -79 46 -50 53 -75 18 -62 -13 4 -54 11 -92 15 -104 10 -170 38 -232
96 -29 27 -55 50 -57 50 -2 0 -48 16 -102 35 -54 19 -114 37 -134 39 -20 1
-47 9 -61 16 -32 17 -200 27 -200 11 0 -6 9 -11 20 -11 11 0 20 -4 20 -10 0
-5 -8 -10 -17 -10 -9 0 -14 -3 -10 -6 3 -4 13 -4 22 -1 8 4 17 5 19 4 2 -1 13
6 24 16 24 22 58 19 54 -6 -2 -12 2 -15 15 -11 13 4 14 3 5 -3 -17 -13 -6 -38
21 -51 12 -6 16 -11 10 -11 -7 -1 -13 -8 -13 -16 0 -8 -4 -15 -10 -15 -5 0
-10 -4 -10 -10 0 -5 7 -10 16 -10 8 0 12 -5 8 -11 -3 -6 0 -15 7 -20 10 -6 8
-9 -9 -9 -19 0 -22 -4 -18 -20 3 -11 8 -28 11 -39 10 -35 -19 -45 -76 -26 -42
14 -53 15 -59 4 -7 -10 -12 -10 -23 -1 -20 17 -109 12 -95 -5 8 -10 1 -13 -28
-15 -69 -2 -91 -11 -124 -50 -27 -31 -45 -35 -97 -23 -21 5 -33 4 -33 -3 0
-17 -75 -24 -120 -11 -37 11 -40 14 -25 25 15 11 13 12 -17 8 -24 -4 -38 -1
-47 10 -12 14 -10 16 12 16 14 0 28 -6 30 -12 3 -8 6 -6 6 5 1 9 -7 17 -16 18
-13 1 -11 3 5 7 21 6 22 9 8 27 -13 17 -15 18 -16 3 0 -20 -38 -34 -52 -20 -6
6 -2 15 13 26 13 9 19 16 14 16 -6 0 -5 4 2 8 8 5 8 12 -3 26 -12 17 -14 18
-14 3 0 -20 -16 -23 -23 -4 -3 7 -6 5 -6 -5 -1 -10 -6 -18 -12 -18 -6 0 -9 -9
-6 -20 9 -36 -15 -54 -64 -47 -40 5 -39 4 21 -17 36 -12 74 -27 85 -33 11 -6
52 -18 90 -27 39 -9 88 -22 110 -28 103 -28 346 -30 520 -4 136 21 239 56 341
119 l69 42 100 -1 c123 -2 209 -23 278 -68 91 -59 130 -110 225 -296 92 -177
115 -243 127 -360 3 -36 15 -105 25 -155 10 -49 21 -124 25 -165 4 -41 11 -95
17 -120 14 -64 17 -135 7 -205 -23 -166 -22 -265 3 -265 6 0 16 -7 22 -16 10
-14 18 -9 55 31 41 45 42 48 37 98 -3 29 -8 88 -11 132 -6 80 -18 152 -29 162
-3 4 -6 1 -6 -5 0 -7 -5 -12 -10 -12 -6 0 -9 3 -9 8 1 4 0 9 -1 12 -7 19 -12
53 -15 105 -5 101 -24 215 -50 301 -27 88 -32 120 -15 94 6 -9 10 -10 10 -3 0
6 -4 15 -10 18 -5 3 -9 21 -8 40 1 19 -2 38 -7 43 -4 4 -5 -4 -2 -17 3 -13 2
-20 -2 -15 -5 5 -11 23 -15 39 -5 22 -4 26 4 15 19 -29 10 3 -19 64 -16 33
-39 86 -51 116 -36 91 -97 200 -156 280 -31 41 -69 100 -84 131 -26 51 -97
150 -124 174 -7 6 -17 29 -24 52 -14 47 -3 178 19 227 9 19 9 30 2 37 -17 17
-41 -39 -54 -125 -7 -43 -16 -76 -23 -76 -6 0 -21 17 -33 38 -12 20 -43 64
-70 97 -27 33 -61 81 -76 108 -15 26 -30 47 -32 47 -4 0 3 -45 11 -73 6 -18 5
-18 -23 -1 -15 10 -30 21 -33 24 -36 36 -59 50 -65 39z m-180 -339 c3 -5 1
-10 -4 -10 -6 0 -11 5 -11 10 0 6 2 10 4 10 3 0 8 -4 11 -10z"/>
<path d="M1610 2407 c0 -8 9 -22 20 -32 11 -10 20 -13 20 -8 0 6 -7 16 -15 23
-8 7 -12 16 -9 21 3 5 0 9 -5 9 -6 0 -11 -6 -11 -13z"/>
<path d="M1661 2328 c13 -25 69 -92 69 -83 0 7 -71 105 -76 105 -3 0 1 -10 7
-22z"/>
<path d="M2390 2268 c0 -7 -12 -22 -27 -33 -14 -11 -33 -27 -41 -35 -14 -13
-15 -12 -9 11 5 19 3 26 -8 26 -16 0 -16 -25 -1 -59 9 -19 56 -21 56 -3 1 5 7
-1 14 -14 9 -16 16 -20 20 -12 4 7 0 23 -9 37 -9 14 -14 28 -12 31 3 2 10 -5
17 -16 6 -12 16 -21 22 -21 7 0 6 5 -2 15 -7 8 -8 15 -2 15 5 0 12 9 15 20 3
11 10 20 16 20 9 0 9 -5 1 -21 -6 -11 -9 -25 -6 -32 2 -7 5 -4 5 6 1 21 8 22
28 1 9 -8 19 -12 22 -7 3 5 11 9 18 8 15 0 30 -15 15 -15 -7 0 -12 -4 -12 -9
0 -12 27 -8 41 6 8 8 8 18 -1 34 l-11 24 20 -23 c14 -16 21 -18 25 -10 5 10 7
10 12 1 3 -7 10 -13 15 -13 6 0 5 8 -1 20 -6 11 -7 20 -2 20 5 0 14 -10 21
-22 11 -22 11 -22 6 5 -3 15 -1 27 5 27 5 0 9 -3 8 -7 -2 -5 2 -9 7 -10 6 -2
10 2 10 9 0 6 6 13 13 16 6 2 12 -3 12 -11 0 -7 8 -21 18 -30 15 -14 19 -15
19 -2 0 8 -4 12 -9 9 -4 -3 -8 4 -8 15 0 14 5 19 15 15 8 -4 15 -11 15 -18 0
-6 5 -4 10 4 8 12 10 12 10 1 0 -11 3 -11 14 -2 11 9 20 9 34 2 15 -8 21 -7
26 4 3 8 10 15 16 15 6 0 8 -4 5 -10 -3 -5 -2 -10 3 -10 6 0 13 7 16 16 5 14
-16 15 -206 12 -117 -1 -228 1 -245 5 -25 7 -33 5 -33 -5z m24 -22 c-3 -9 -10
-16 -15 -16 -5 0 -4 9 3 20 14 22 21 20 12 -4z"/>
<path d="M2130 2240 c0 -5 5 -10 11 -10 5 0 7 5 4 10 -3 6 -8 10 -11 10 -2 0
-4 -4 -4 -10z"/>
<path d="M2267 2223 c-4 -3 -7 -11 -7 -17 0 -6 5 -5 12 2 6 6 9 14 7 17 -3 3
-9 2 -12 -2z"/>
<path d="M3001 2214 c0 -11 3 -14 6 -6 3 7 2 16 -1 19 -3 4 -6 -2 -5 -13z"/>
<path d="M1770 2203 c0 -6 8 -17 18 -24 16 -13 16 -13 2 6 -8 11 -16 22 -17
24 -2 2 -3 0 -3 -6z"/>
<path d="M2747 2190 c3 -11 9 -20 14 -20 4 0 7 9 6 20 -1 11 -7 20 -13 20 -7
0 -10 -8 -7 -20z"/>
<path d="M2681 2191 c-8 -5 -26 -8 -41 -6 -23 3 -27 1 -23 -16 3 -10 10 -19
15 -19 5 0 6 5 2 12 -4 7 -3 8 5 4 6 -4 9 -11 6 -16 -8 -12 5 -40 19 -40 15 0
16 42 2 53 -7 5 -2 7 12 4 12 -3 20 -1 16 4 -3 5 0 9 5 9 6 0 11 5 11 10 0 12
-10 13 -29 1z"/>
<path d="M2555 2170 c4 -6 11 -8 16 -5 14 9 11 15 -7 15 -8 0 -12 -5 -9 -10z"/>
<path d="M1834 2128 c15 -20 35 -39 44 -42 11 -4 9 1 -6 14 -14 12 -21 24 -16
32 4 7 3 10 -1 5 -5 -4 -17 1 -29 10 -13 12 -10 5 8 -19z"/>
<path d="M3905 2150 c3 -5 8 -10 11 -10 2 0 4 5 4 10 0 6 -5 10 -11 10 -5 0
-7 -4 -4 -10z"/>
<path d="M2335 2140 c3 -5 16 -15 28 -21 22 -12 22 -12 3 10 -19 21 -43 30
-31 11z"/>
<path d="M2525 2140 c3 -5 8 -10 11 -10 2 0 4 5 4 10 0 6 -5 10 -11 10 -5 0
-7 -4 -4 -10z"/>
<path d="M2551 2113 c-1 -12 4 -25 9 -28 12 -7 12 2 0 30 -8 19 -9 19 -9 -2z"/>
<path d="M3015 2120 c-4 -6 -3 -16 3 -22 13 -13 23 4 13 21 -7 10 -10 10 -16
1z"/>
<path d="M2785 2091 c-3 -5 -1 -12 5 -16 5 -3 10 1 10 9 0 18 -6 21 -15 7z"/>
<path d="M2816 2073 c5 -5 12 -12 16 -18 4 -6 8 -2 8 8 0 9 -7 17 -17 17 -9 0
-12 -3 -7 -7z"/>
<path d="M1926 2052 c-6 -11 111 -75 123 -67 5 3 12 1 16 -5 3 -5 23 -9 43 -9
34 2 35 2 7 6 -16 3 -35 9 -42 15 -7 5 -17 7 -22 3 -13 -7 -71 22 -71 36 0 6
-4 8 -9 4 -5 -3 -16 2 -25 10 -8 8 -17 12 -20 7z"/>
<path d="M2764 2029 c-9 -15 -2 -18 20 -9 17 6 18 7 3 13 -9 3 -19 2 -23 -4z"/>
<path d="M2820 2029 c0 -5 5 -7 10 -4 6 3 10 8 10 11 0 2 -4 4 -10 4 -5 0 -10
-5 -10 -11z"/>
<path d="M2650 2010 c-13 -8 -12 -11 5 -23 10 -8 26 -12 35 -8 11 4 10 7 -7 9
-13 2 -23 8 -23 13 0 6 5 7 12 3 7 -4 8 -3 4 4 -9 14 -7 14 -26 2z"/>
<path d="M2720 2000 c-13 -8 -12 -10 3 -10 9 0 17 5 17 10 0 12 -1 12 -20 0z"/>
<path d="M2433 1960 c1 -18 7 -24 20 -22 9 2 17 -2 17 -8 0 -6 5 -8 10 -5 11
7 -12 35 -28 35 -6 0 -13 6 -16 13 -3 6 -4 1 -3 -13z"/>
<path d="M2370 1949 c0 -5 5 -7 10 -4 6 3 10 8 10 11 0 2 -4 4 -10 4 -5 0 -10
-5 -10 -11z"/>
</g>
</svg>
